<?xml version="1.0" encoding="utf-8"?>
<!-- Generator: Adobe Illustrator 17.0.0, SVG Export Plug-In . SVG Version: 6.00 Build 0)  -->
<!DOCTYPE svg PUBLIC "-//W3C//DTD SVG 1.1//EN" "http://www.w3.org/Graphics/SVG/1.1/DTD/svg11.dtd">
<svg version="1.1" id="Capa_1" xmlns="http://www.w3.org/2000/svg" xmlns:xlink="http://www.w3.org/1999/xlink" x="0px" y="0px"
	 width="660.066px" height="660.066px" viewBox="-2442.819 -369.623 660.066 660.066"
	 enable-background="new -2442.819 -369.623 660.066 660.066" xml:space="preserve">
<g>
	<path fill="#5F7194" d="M-2113.385,210.271c-30.279,0-60.561-0.269-90.834,0.109c-16.096,0.201-28.345-5.772-38.321-18.44
		c-37.074-47.077-74.235-94.091-111.992-140.618c-11.65-14.356-15.127-28.904-10.841-46.941
		c14.123-59.421,27.367-119.052,40.905-178.612c2.978-13.099,10.35-22.66,22.45-28.504c57.224-27.638,114.441-55.289,171.698-82.857
		c12.603-6.068,24.998-4.809,37.408,1.223c48.274,23.463,96.635,46.749,144.964,70.097c8.148,3.936,16.339,7.784,24.446,11.801
		c11.391,5.643,18.744,14.736,21.57,27.074c14.19,61.943,28.194,123.928,42.341,185.88c3.173,13.894-0.276,25.908-9.06,36.905
		c-33.157,41.511-66.181,83.128-99.256,124.705c-5.384,6.768-10.97,13.386-16.122,20.326c-9.335,12.575-21.683,18.098-37.286,17.943
		C-2052.002,210.056-2082.695,210.271-2113.385,210.271z M-2113.005,187.925c30.48,0,60.963-0.199,91.44,0.124
		c8.882,0.094,15.281-2.962,20.542-10.023c7.5-10.067,15.538-19.733,23.356-29.562c30.505-38.35,60.991-76.715,91.549-115.022
		c4.207-5.273,6.408-10.745,4.823-17.67c-14.034-61.336-27.988-122.691-41.849-184.067c-1.628-7.207-5.505-11.957-12.178-15.165
		c-55.784-26.814-111.519-53.73-167.195-80.769c-7.275-3.533-13.852-3.458-21.152,0.092
		c-55.475,26.978-111.022,53.808-166.649,80.471c-7.153,3.429-11.119,8.445-12.838,16.075
		c-13.691,60.782-27.474,121.543-41.416,182.268c-1.569,6.832-0.387,12.488,3.896,17.863
		c38.873,48.794,77.762,97.574,116.471,146.498c5.079,6.419,11.071,9.039,19.143,8.979
		C-2174.379,187.789-2143.691,187.925-2113.005,187.925z"/>
	<path fill="#5F7194" d="M-2223.009-101.126c-1.298-1.811-2.72-3.012-3.134-4.494c-4.148-14.848-16.871-19.72-29.042-25.288
		c-2.04-0.934-4.281-1.737-5.92-3.178c-3.705-3.259-5.676-7.977-3.261-12.183c2.013-3.506,5.848-6.808,9.621-8.251
		c4.799-1.836,8.868,1.161,12.104,5.245c5.211,6.577,9.989,13.918,16.501,18.915c5.536,4.247,13.213,5.781,20.073,8.136
		c0.952,0.327,2.8-1.355,3.982-2.393c20.33-17.867,43.768-28.999,70.65-32.641c3.358-0.455,4.461-2.273,6.266-5.204
		c8.725-14.168,4.995-28.048,0.6-42.139c-1.769-5.67,0.103-10.269,4.755-13.492c4.486-3.108,9.436-2.998,13.849,0.243
		c4.383,3.219,5.934,7.681,4.45,13.089c-1.413,5.148-2.679,10.336-4.046,15.497c-2.835,10.707,1.226,20.139,5.623,29.434
		c0.529,1.118,2.456,1.912,3.874,2.221c38.701,8.433,46.681,12.263,76.676,36.867c4.44-1.025,8.624-1.753,12.645-3.005
		c2.478-0.771,5.237-1.838,6.952-3.644c5.916-6.23,11.815-12.552,16.964-19.406c3.748-4.989,7.825-7.936,14.04-6.418
		c5.588,1.365,8.87,5.128,9.099,10.992c0.25,6.417-3.261,10.191-9.022,12.529c-4.551,1.847-9.088,3.891-13.277,6.432
		c-7.071,4.288-13.81,8.989-15.801,17.97c-0.459,2.07-2.307,3.832-2.737,4.51c5.884,14.335,12.983,27.549,16.614,41.656
		c3.434,13.343,3.46,27.607,4.463,41.504c0.261,3.611,1.395,5.071,4.111,7.558c12.313,11.273,26.657,10.008,41.31,8.493
		c5.743-0.594,10.061,1.752,12.518,7.02c2.378,5.097,1.245,9.771-2.703,13.531c-4.177,3.978-9.017,4.241-14.295,1.944
		c-6.939-3.02-14.097-5.541-21.017-8.6c-8.483-3.75-16.019,1.96-24.097,2.147c-0.771,0.018-1.762,2.046-2.198,3.299
		c-10.229,29.413-28.323,52.699-54.239,69.942c-0.985,0.656-2.564,1.636-2.532,2.412c0.27,6.692-0.674,13.984,1.712,19.9
		c3.074,7.623,8.501,14.442,13.637,21.046c4.535,5.831,6.174,11.157,3.067,16.267c-2.859,4.703-7.214,6.688-12.62,5.774
		c-5.866-0.992-8.7-5.074-9.951-12.404c-1.033-6.053-3.034-11.941-4.047-17.996c-1.643-9.821-10.309-13.874-16.11-20.258
		c-0.569-0.626-2.657-0.246-3.883,0.152c-27.896,9.049-55.781,9.237-83.755,0.285c-1.451-0.464-3.696,0.288-5.117,1.189
		c-13.911,8.829-17.622,22.802-19.109,37.987c-0.586,5.984-4.346,9.777-10.246,10.826c-5.442,0.968-9.757-1.376-12.42-6.124
		c-2.854-5.089-1.805-9.833,1.95-14.216c3.473-4.054,6.666-8.346,10.093-12.441c6.994-8.36,7.137-18.408,6.937-28.471
		c-0.024-1.198-1.654-2.681-2.893-3.491c-26.065-17.042-44.263-40.222-54.822-69.515c-0.564-1.565-2.776-2.896-4.518-3.621
		c-14.702-6.114-27.213,0.309-39.482,7.334c-5.465,3.129-10.621,3.403-15.378-0.822c-4.313-3.83-5.203-8.773-2.863-14.054
		c2.384-5.381,7.566-6.94,14.47-6.863c8.963,0.099,18.169-0.127,26.826-2.132c5.146-1.192,9.482-6.012,14.052-9.379
		c0.558-0.411,0.471-1.94,0.396-2.93C-2249.052-45.6-2241.135-74.598-2223.009-101.126z M-2218.142,13.221
		c8.665,22.984,22.614,41.164,42.991,55.052c5.589-15.871,10.686-31.486,16.594-46.789c5.394-13.971,5.021-16.555-10.664-14.096
		C-2185.203,9.893-2201.362,11.269-2218.142,13.221z M-2224.344-18.81c18.914-6.09,37.279-11.867,55.533-17.976
		c4.794-1.605,4.965-4.927,0.902-8.948c-7.304-7.229-14.707-14.359-22.023-21.576c-5.65-5.574-11.231-11.217-17.278-17.264
		C-2219.897-64.108-2225.816-42.707-2224.344-18.81z M-2049.95,67.665c20.042-14.337,33.877-32.087,41.816-54.615
		c-18.44-1.685-36.266-3.344-54.1-4.926c-5.101-0.452-7.592,1.915-6.092,6.394C-2062.469,32.007-2056.299,49.391-2049.95,67.665z
		 M-2145.592,82.053c20.24,7.397,53.867,5.871,65.533-0.712c-9.229-16.031-18.379-32.108-27.739-48.062
		c-2.66-4.534-6.208-4.419-8.978,0.141c-4.271,7.034-8.231,14.255-12.426,21.336C-2134.524,63.742-2139.949,72.667-2145.592,82.053z
		 M-2001.758-19.433c1.314-22.841-4.213-43.286-14.88-61.289c-15.047,15.012-29.778,29.709-44.308,44.207
		C-2042.022-31.054-2022.17-25.324-2001.758-19.433z M-2096.576-134.811c1.685,18.002,3.211,34.986,4.892,51.954
		c0.751,7.58,3.761,8.841,10.15,4.469c7.127-4.877,14.198-9.838,21.345-14.687c7.082-4.804,14.228-9.514,21.762-14.543
		C-2055.515-122.481-2074.372-131.542-2096.576-134.811z M-2185.645-109.36c16.856,11.258,33.326,22.258,50.327,33.612
		c1.982-20.077,3.887-39.366,5.841-59.156C-2151.049-131.504-2169.431-123.223-2185.645-109.36z M-2112.89-48.188
		c-4.467,1.505-9.604,1.795-12.374,4.504c-4.21,4.117-9.036,9.679-9.594,15.043c-1.319,12.689,10.645,25.419,21.715,25.382
		c11.113-0.037,23.106-12.815,21.739-25.453c-0.582-5.376-5.505-10.856-9.691-15.058
		C-2103.703-46.387-2108.621-46.703-2112.89-48.188z"/>
</g>
</svg>
