<?xml version="1.0" encoding="utf-8"?>
<!-- Generator: Adobe Illustrator 17.0.0, SVG Export Plug-In . SVG Version: 6.00 Build 0)  -->
<!DOCTYPE svg PUBLIC "-//W3C//DTD SVG 1.1//EN" "http://www.w3.org/Graphics/SVG/1.1/DTD/svg11.dtd">
<svg version="1.1" id="Capa_1" xmlns="http://www.w3.org/2000/svg" xmlns:xlink="http://www.w3.org/1999/xlink" x="0px" y="0px"
	 width="660.066px" height="660.066px" viewBox="-1744.473 -369.623 660.066 660.066"
	 enable-background="new -1744.473 -369.623 660.066 660.066" xml:space="preserve">
<g>
	<path fill="#5F7194" d="M-1559.146,41c-4.378-2.474-8.385-4.738-13.032-7.364c4.309-7.548,8.298-14.967,12.729-22.112
		c2.168-3.498,2.47-5.869-0.197-9.581c-5.961-8.298-6.691-17.715-2.26-26.978c3.005-6.282,6.55-12.37,10.448-18.143
		c5.886-8.717,14.475-12.37,24.939-11.62c2.44,0.175,4.674,0.801,6.353-2.237c1.614-2.918-0.228-4.23-1.474-6.09
		c-6.047-9.031-6.956-18.609-2.341-28.425c2.4-5.105,5.405-9.936,8.296-14.797c6.204-10.432,15.394-15.437,27.536-14.305
		c3.181,0.297,4.751-0.637,6.224-3.354c4.185-7.72,8.677-15.272,13.281-23.297c4.364,2.466,8.368,4.729,13.012,7.354
		c-4.222,7.4-8.153,14.655-12.456,21.681c-2.194,3.582-2.74,6.118,0.189,10.001c5.178,6.865,6.507,15.263,3.372,23.27
		c-3.984,10.175-8.566,20.275-17.347,27.526c-5.671,4.684-12.305,6.215-19.589,5.94c-1.923-0.073-4.287,0.824-5.765,2.081
		c-2.421,2.058-0.432,4.052,0.926,5.98c6.027,8.555,7.525,17.899,2.948,27.35c-4.243,8.761-7.997,18.025-15.981,24.405
		c-6.025,4.815-12.94,6.837-20.537,5.807c-2.812-0.381-4.195,0.37-5.514,2.768C-1549.78,24.844-1554.395,32.706-1559.146,41z
		 M-1516.971-32.14c-1.876,2.83-3.286,4.956-4.763,7.185c-4.412-2.543-8.413-4.849-12.554-7.235c1.259-2.53,2.385-4.791,3.636-7.304
		c-9.786,1.65-21.503,22.422-17.298,30.311c1.396-2.116,2.725-4.129,4.174-6.326c4.341,2.522,8.438,4.902,12.605,7.324
		c-1.321,2.602-2.399,4.726-3.66,7.21C-1525.062-3.226-1514.282-21.84-1516.971-32.14z M-1497.287-66.792
		c10.331-2.382,21.74-22.623,17.51-30.491c-1.403,2.163-2.735,4.219-4.208,6.49c-4.283-2.475-8.406-4.857-12.698-7.337
		c1.364-2.6,2.522-4.808,3.954-7.538c-10.291,2.656-21.05,21.75-17.767,30.743c1.566-2.237,3.006-4.293,4.5-6.427
		c4.362,2.531,8.366,4.854,12.524,7.266C-1494.753-71.638-1495.901-69.442-1497.287-66.792z"/>
	<path fill="#5F7194" d="M-1372.776-139.905c4.384-2.525,8.391-4.833,12.919-7.441c4.488,7.797,9.036,15.284,13.131,23.012
		c1.677,3.165,3.581,4.045,7.055,3.728c10.888-0.993,19.597,3.215,25.582,12.332c3.552,5.411,6.783,11.085,9.62,16.902
		c4.889,10.025,3.516,19.61-2.752,28.754c-0.967,1.411-1.476,4.153-0.735,5.433c0.765,1.321,3.364,2.344,5.075,2.229
		c11.955-0.802,21.115,3.727,27.412,13.844c2.987,4.799,5.823,9.719,8.343,14.776c5.141,10.314,4.297,20.38-2.542,29.613
		c-1.877,2.533-1.688,4.152-0.249,6.578c4.571,7.707,8.931,15.538,13.62,23.754c-4.357,2.496-8.459,4.846-12.995,7.445
		c-4.652-8.128-9.217-15.834-13.483-23.702c-1.489-2.747-3.092-3.547-6.262-3.207c-10.866,1.168-19.651-2.968-25.779-11.943
		c-3.648-5.341-6.853-11.039-9.736-16.836c-5.042-10.137-3.825-19.913,2.403-29.301c0.954-1.438,1.557-4.132,0.833-5.379
		c-0.771-1.327-3.358-2.355-5.076-2.253c-12.153,0.724-21.559-3.858-27.629-14.352c-3.891-6.727-7.7-13.654-10.301-20.936
		c-2.866-8.024-0.446-15.835,4.61-22.542c1.886-2.502,2.117-4.231,0.447-6.971C-1363.924-124.004-1368.203-131.872-1372.776-139.905
		z M-1349.004-97.839c-3.436,9.383,7.995,29.168,17.634,30.854c-1.212-2.477-2.314-4.731-3.524-7.203
		c4.358-2.492,8.349-4.773,12.551-7.176c1.565,2.385,2.893,4.407,4.308,6.563c4.009-8.748-8.072-29.644-17.457-30.358
		c1.227,2.375,2.407,4.66,3.682,7.13c-4.446,2.539-8.437,4.819-12.658,7.229C-1346.006-93.189-1347.321-95.229-1349.004-97.839z
		 M-1284.658-15.551c1.594,2.41,2.964,4.481,4.693,7.094c2.422-10.992-8.711-29.873-17.667-30.789
		c1.156,2.422,2.244,4.703,3.41,7.149c-4.395,2.499-8.406,4.779-12.557,7.14c-1.589-2.379-2.961-4.434-4.667-6.988
		c-2.813,10.681,8.956,30.199,17.751,30.588c-1.188-2.253-2.343-4.445-3.616-6.86C-1293.162-10.622-1289.146-12.95-1284.658-15.551z
		"/>
	<path fill="#5F7194" d="M-1484.896,120.429c-10.065,0-20.21,0-30.812,0c0-4.919,0-9.605,0-14.992
		c9.002,0,17.947-0.125,26.885,0.069c3.061,0.067,4.67-0.747,5.974-3.728c4.355-9.959,12.076-15.81,23.032-16.497
		c6.962-0.437,14.003-0.476,20.956,0.029c10.538,0.766,17.859,6.603,22.364,16.023c1.006,2.103,1.481,4.097,4.695,4.121
		c3.215,0.024,3.62-1.885,4.646-4.035c4.387-9.189,11.488-15.251,21.776-16.226c7.422-0.703,14.999-0.778,22.428-0.173
		c10.651,0.867,18.328,6.744,22.56,16.534c1.334,3.087,3.033,3.711,6.023,3.654c8.779-0.166,17.563-0.059,26.609-0.059
		c0,5.089,0,9.675,0,14.996c-8.583,0-17.035,0.168-25.476-0.074c-3.915-0.112-6.02,0.883-7.811,4.81
		c-4.241,9.299-11.919,14.677-22.217,15.416c-6.63,0.476-13.332,0.433-19.977,0.107c-11.166-0.548-19.011-6.331-23.709-16.368
		c-1.034-2.208-1.871-4.661-4.823-3.613c-1.7,0.604-3.664,1.969-4.406,3.519c-4.705,9.835-12.189,15.707-23.121,16.552
		c-6.13,0.474-12.326,0.592-18.468,0.323c-12.525-0.549-21.309-6.693-26.013-18.445
		C-1484.023,121.763-1484.435,121.221-1484.896,120.429z M-1356.275,120.497c-2.725-0.213-5.234-0.408-7.844-0.612
		c0-5.002,0-9.59,0-14.383c2.71-0.216,5.21-0.416,8.032-0.641c-6.758-7.837-30.202-7.522-34.908,0.208
		c2.484,0.15,4.86,0.294,7.208,0.436c0,5.122,0,9.847,0,14.533c-2.687,0.2-5.014,0.374-7.812,0.582
		C-1384.435,127.86-1361.967,127.62-1356.275,120.497z M-1467.7,120.5c7.625,7.993,30.9,7.543,35.548-0.226c-2.65,0-5.094,0-8.116,0
		c0-3.443,0-6.565,0-9.687c0-1.616,0-3.233,0-4.971c3.051-0.201,5.553-0.366,8.446-0.557c-6.923-7.623-30.171-7.303-35.201,0.177
		c2.514,0.119,4.904,0.231,7.341,0.346c0,5.144,0,9.877,0,14.918C-1462.272,120.5-1464.534,120.5-1467.7,120.5z"/>
	<path fill="#5F7194" d="M-1479.224,142.779c2.526,4.406,4.815,8.398,7.309,12.749c-1.591,1.03-2.899,1.961-4.283,2.761
		c-28.97,16.73-57.979,33.396-86.883,50.239c-3.008,1.753-5.126,1.672-8.09-0.054c-31.644-18.424-63.348-36.746-95.139-54.915
		c-3.214-1.837-4.187-3.818-4.173-7.414c0.142-36.489,0.147-72.978-0.006-109.467c-0.015-3.655,1.112-5.559,4.266-7.36
		c28.322-16.169,56.537-32.528,85.301-49.13c2.476,4.248,4.863,8.342,7.446,12.773c-1.616,1.021-3.086,2.021-4.62,2.908
		c-24.498,14.158-48.974,28.354-73.549,42.378c-2.842,1.622-3.833,3.357-3.819,6.628c0.136,31.157,0.127,62.315,0.01,93.471
		c-0.011,3.086,1.014,4.716,3.657,6.229c27.155,15.547,54.255,31.188,81.292,46.94c2.701,1.574,4.578,1.323,7.167-0.186
		c26.171-15.254,52.425-30.365,78.658-45.511C-1483.104,144.911-1481.503,144.048-1479.224,142.779z"/>
	<path fill="#5F7194" d="M-1355.418,156.964c2.482-4.301,4.869-8.436,7.375-12.778c23.69,13.654,47.027,27.138,70.404,40.551
		c5.308,3.045,10.74,8.072,16.148,8.115c5.197,0.042,10.471-5.135,15.652-8.12c22.784-13.13,45.518-26.346,68.352-39.388
		c2.923-1.669,4.12-3.458,4.102-6.949c-0.16-30.822-0.166-61.645-0.017-92.467c0.017-3.621-1.027-5.607-4.219-7.422
		c-24.162-13.735-48.206-27.679-72.281-41.567c-1.571-0.906-3.1-1.884-5.127-3.12c2.486-4.292,4.855-8.382,7.374-12.73
		c1.653,0.882,2.961,1.533,4.225,2.261c26.962,15.545,53.89,31.15,80.92,46.576c2.988,1.705,4.114,3.513,4.102,6.984
		c-0.123,36.653-0.103,73.307,0.018,109.961c0.011,3.361-0.873,5.313-3.94,7.069c-31.918,18.279-63.731,36.74-95.571,55.154
		c-2.145,1.24-3.864,2.297-6.722,0.629c-29.323-17.113-58.776-34.002-88.187-50.965
		C-1353.654,158.272-1354.422,157.654-1355.418,156.964z"/>
	<path fill="#5F7194" d="M-1311.367-128.989c-4.781,0-9.363,0-14.578,0c0-2.188,0-4.143,0-6.098c0-27.481-0.053-54.963,0.067-82.444
		c0.015-3.375-0.922-5.38-3.975-7.123c-26.875-15.34-53.683-30.802-80.407-46.403c-3.053-1.782-5.199-1.574-8.126,0.13
		c-26.743,15.571-53.548,31.037-80.421,46.381c-2.869,1.638-3.748,3.465-3.733,6.677c0.13,27.647,0.075,55.296,0.075,82.943
		c0,1.811,0,3.621,0,5.803c-5.045,0-9.752,0-14.753,0c-0.094-1.59-0.255-3.044-0.256-4.497c-0.015-30.979,0.039-61.959-0.085-92.937
		c-0.013-3.223,0.896-5.011,3.767-6.655c32.053-18.354,64.034-36.834,95.964-55.399c2.64-1.535,4.522-1.542,7.177,0.002
		c31.927,18.572,63.956,36.966,95.855,55.585c1.758,1.026,3.685,3.621,3.699,5.498c0.227,31.644,0.165,63.289,0.144,94.935
		C-1310.957-131.461-1311.208-130.33-1311.367-128.989z"/>
	<path fill="#5F7194" d="M-1342.178-221.428c2.555,4.444,4.848,8.432,7.339,12.766c-1.851,1.14-3.346,2.114-4.889,3.005
		c-21.043,12.152-42.058,24.352-63.179,36.366c-2.859,1.627-3.808,3.429-3.79,6.668c0.139,24.324,0.075,48.65,0.075,72.975
		c0,1.79,0,3.58,0,5.631c-5.159,0-9.735,0-15.034,0c0-2.068,0-3.998,0-5.928c0-23.659-0.112-47.319,0.102-70.976
		c0.039-4.344-1.133-6.789-5.068-9.002c-20.743-11.666-41.283-23.693-61.89-35.6c-1.573-0.909-3.122-1.857-5.175-3.08
		c2.464-4.264,4.833-8.364,7.39-12.79c1.657,0.893,3.08,1.615,4.46,2.41c21.197,12.217,42.427,24.377,63.537,36.742
		c2.996,1.755,5.141,1.748,8.127,0.001c20.971-12.274,42.057-24.349,63.11-36.483
		C-1345.637-219.545-1344.185-220.319-1342.178-221.428z"/>
	<path fill="#5F7194" d="M-1646.531,54.094c2.555-4.41,4.948-8.54,7.439-12.841c22.699,13.106,45.078,25.918,67.312,38.977
		c3.478,2.043,5.995,1.974,9.431-0.046c20.8-12.225,41.742-24.208,62.641-36.266c1.422-0.821,2.875-1.588,4.643-2.562
		c2.446,4.201,4.768,8.188,7.335,12.596c-1.551,1.028-2.953,2.067-4.454,2.935c-21.181,12.234-42.345,24.498-63.605,36.595
		c-2.828,1.609-3.835,3.374-3.815,6.64c0.15,24.319,0.081,48.639,0.081,72.959c0,1.784,0,3.568,0,5.657c-5.123,0-9.703,0-14.764,0
		c-0.082-1.877-0.226-3.642-0.227-5.408c-0.015-24.153-0.124-48.308,0.104-72.459c0.037-3.945-1.344-5.859-4.594-7.705
		c-20.978-11.918-41.841-24.037-62.735-36.102C-1643.3,56.165-1644.805,55.168-1646.531,54.094z"/>
	<path fill="#5F7194" d="M-1189.744,41.833c2.614,4.52,4.927,8.519,7.389,12.775c-1.815,1.099-3.334,2.054-4.886,2.952
		c-21.18,12.252-42.336,24.544-63.582,36.68c-2.667,1.523-3.616,3.222-3.599,6.276c0.137,24.327,0.096,48.654,0.11,72.982
		c0.001,1.792,0,3.584,0,5.657c-5.058,0-9.656,0-15.02,0c0-1.75,0-3.509,0-5.267c-0.007-24.327-0.088-48.655,0.063-72.982
		c0.021-3.475-1.122-5.285-4.114-6.986c-20.982-11.925-41.847-24.056-62.745-36.128c-1.573-0.909-3.119-1.867-5.144-3.082
		c2.474-4.274,4.85-8.382,7.382-12.757c1.911,1.03,3.519,1.848,5.081,2.747c20.772,11.959,41.588,23.843,62.255,35.982
		c3.41,2.003,5.847,2.178,9.348,0.11c20.639-12.185,41.446-24.087,62.202-36.076C-1193.432,43.809-1191.82,42.969-1189.744,41.833z"
		/>
	<path fill="#5F7194" d="M-1455.697-75.971c2.646-4.569,4.966-8.574,7.513-12.974c10.326,5.949,20.431,11.634,30.375,17.589
		c2.646,1.585,4.554,1.545,7.189-0.033c9.834-5.891,19.836-11.503,30.284-17.512c2.493,4.254,4.889,8.342,7.553,12.889
		c-7.715,4.481-15.153,8.81-22.6,13.122c-5.329,3.085-10.605,6.272-16.053,9.131c-1.364,0.716-3.692,1.044-4.911,0.362
		C-1429.401-60.704-1442.32-68.249-1455.697-75.971z"/>
	<path fill="#5F7194" d="M-1511.573,21.553c2.559-4.44,4.86-8.432,7.456-12.935c6.077,3.481,11.924,6.817,17.757,10.177
		c6.477,3.731,12.995,7.397,19.369,11.297c1.364,0.834,3.091,2.54,3.114,3.872c0.231,13.274,0.14,26.554,0.14,40.285
		c-5.036,0-9.702,0-14.986,0c0-9.86-0.155-19.623,0.086-29.377c0.082-3.308-1.04-5.04-3.88-6.611
		C-1492.101,32.962-1501.522,27.365-1511.573,21.553z"/>
	<path fill="#5F7194" d="M-1350.173,72.724c-5.26,0-9.827,0-15.028,0c0-10.92,0.424-21.55-0.162-32.124
		c-0.342-6.179,1.722-9.484,7.133-12.333c11.436-6.02,22.47-12.806,34.037-19.49c2.546,4.391,4.852,8.368,7.491,12.918
		c-6.966,4.05-13.333,8.716-20.418,11.644c-10.72,4.43-15.085,11.378-13.197,22.91
		C-1349.469,61.422-1350.173,66.848-1350.173,72.724z"/>
	<path fill="#5F7194" d="M-1583.134,155.137c-2.642,4.577-4.947,8.571-7.508,13.007c-6.3-3.628-12.294-7.085-18.292-10.534
		c-10.8-6.21-21.548-12.515-32.442-18.555c-2.964-1.643-4.428-3.449-4.083-6.967c0.336-3.426,0.073-6.912,0.073-10.7
		c5.118,0,9.821,0,15.227,0c-2.44,6.776,2.757,8.318,6.854,10.669C-1610.066,139.658-1596.831,147.267-1583.134,155.137z"/>
	<path fill="#5F7194" d="M-1372.229-220.116c-12.953-7.47-25.272-14.693-37.737-21.654c-2.258-1.261-5.118-1.446-7.699-2.128
		c-0.21,0.44-0.42,0.881-0.629,1.321c-2.322-4.009-4.645-8.018-7.251-12.516c3.39-1.971,6.582-3.957,9.913-5.672
		c0.817-0.42,2.296-0.315,3.123,0.157c15.728,8.978,31.405,18.047,47.708,27.454
		C-1367.265-228.828-1369.599-224.732-1372.229-220.116z"/>
	<path fill="#5F7194" d="M-1232.983,165.729c-2.577-4.483-4.946-8.605-7.456-12.97c12.942-7.491,25.621-14.722,38.156-22.194
		c1.964-1.17,3.278-3.431,5.796-6.171c2.974,0,7.586,0,12.974,0c0,3.874,0.063,7.782-0.062,11.683
		c-0.021,0.654-0.718,1.526-1.341,1.887C-1200.818,147.195-1216.752,156.37-1232.983,165.729z"/>
	<path fill="#5F7194" d="M-1447.224-242.557c4.462-2.585,8.445-4.892,12.935-7.493c2.534,4.325,4.925,8.404,7.58,12.933
		c-4.465,2.582-8.572,4.957-12.981,7.508C-1442.231-233.973-1444.555-237.968-1447.224-242.557z"/>
	<path fill="#5F7194" d="M-1455.918-237.54c2.543,4.369,4.926,8.464,7.54,12.955c-4.382,2.541-8.46,4.907-12.979,7.528
		c-2.575-4.454-4.94-8.544-7.492-12.96C-1464.405-232.603-1460.296-234.993-1455.918-237.54z"/>
	<path fill="#5F7194" d="M-1630.623,71.258c0,4.982,0,9.559,0,14.426c-4.819,0-9.404,0-14.377,0c0-4.771,0-9.451,0-14.426
		C-1640.29,71.258-1635.699,71.258-1630.623,71.258z"/>
	<path fill="#5F7194" d="M-1198.32,88.8c0-4.934,0-9.518,0-14.413c4.815,0,9.397,0,14.385,0c0,4.695,0,9.389,0,14.413
		C-1188.599,88.8-1193.172,88.8-1198.32,88.8z"/>
	<path fill="#5F7194" d="M-1645.13,110.673c0-4.796,0-9.37,0-14.302c4.831,0,9.525,0,14.483,0c0,4.77,0,9.362,0,14.302
		C-1635.436,110.673-1640.153,110.673-1645.13,110.673z"/>
	<path fill="#5F7194" d="M-1198.286,113.807c0-4.855,0-9.439,0-14.361c4.874,0,9.568,0,14.518,0c0,4.854,0,9.434,0,14.361
		C-1188.51,113.807-1193.085,113.807-1198.286,113.807z"/>
</g>
</svg>
