<?xml version="1.0" encoding="utf-8"?>
<!-- Generator: Adobe Illustrator 17.0.0, SVG Export Plug-In . SVG Version: 6.00 Build 0)  -->
<!DOCTYPE svg PUBLIC "-//W3C//DTD SVG 1.1//EN" "http://www.w3.org/Graphics/SVG/1.1/DTD/svg11.dtd">
<svg version="1.1" id="Capa_1" xmlns="http://www.w3.org/2000/svg" xmlns:xlink="http://www.w3.org/1999/xlink" x="0px" y="0px"
	 width="660.066px" height="660.066px" viewBox="-1025.124 -372.249 660.066 660.066"
	 enable-background="new -1025.124 -372.249 660.066 660.066" xml:space="preserve">
<g>
	<path fill="#5F7194" stroke="#5F7194" stroke-width="3" stroke-miterlimit="10" d="M-791.72,38.066
		c1.291,0.675,0.906,1.598,0.442,2.493c-1.944-0.258-3.763-1.892-5.716-0.333c-0.563,0.449-0.873,1.214-1.31,1.85
		c1.629-0.59,2.911-1.174,4.255-1.469c0.418-0.092,1.382,0.542,1.447,0.948c0.175,1.097,0.385,2.497-0.14,3.311
		c-0.537,0.832-1.931,1.112-2.876,1.877c0.472-0.178,0.943-0.355,1.539-0.58c-0.093,0.377-0.153,0.62-0.264,1.07
		c0.576-0.29,0.999-0.503,1.511-0.761c-0.021,0.347,0.012,0.707-0.071,1.039c-1.733,6.993-3.478,13.983-5.223,20.974
		c-1.622,6.499-3.255,12.995-4.865,19.497c-0.69,2.788-2.663,4.225-5.036,3.614c-2.317-0.597-3.31-2.625-2.611-5.432
		c2.46-9.875,4.929-19.748,7.405-29.619c3.591-14.318,7.166-28.64,10.836-42.938c0.306-1.192,1.036-2.541,1.989-3.262
		c11.495-8.693,19.655-20.115,26.568-32.503c7.937-14.223,12.627-29.644,15.498-45.571c2.275-12.619,3.964-25.348,5.7-38.057
		c2.561-18.742,7.385-36.889,13.852-54.63c2.813-7.716,5.911-15.357,6.949-23.585c0.582-4.613,0.594-9.325-2.922-12.866
		c-4.815-4.848-10.76-7.183-17.604-5.49c-4.404,1.09-7.166,4.613-9.62,8.191c-5.041,7.35-8.529,15.507-11.718,23.757
		c-8.688,22.476-18.837,44.316-28.542,66.352c-3.674,8.342-15.233,9.208-20.398,1.887c-0.851-1.207-1.284-2.731-1.799-4.149
		c-1.942-5.344-3.894-10.686-5.714-16.072c-0.48-1.419-1.203-1.77-2.601-1.736c-4.742,0.113-9.487,0.137-14.23,0.122
		c-6.738-0.022-11.097-4.464-11.116-11.215c-0.026-8.982-0.069-17.964-0.114-26.946c-0.008-1.717,0.052-3.445-0.127-5.146
		c-0.099-0.943-0.629-1.84-0.949-2.715c-0.498,0.122-0.717,0.141-0.721,0.182c-0.287,2.757-2.622,3.8-4.411,5.305
		c-8.264,6.957-16.754,13.668-24.711,20.96c-7.067,6.476-12.448,14.359-13.564,24.157c-0.783,6.879-0.82,13.883-0.668,20.82
		c0.376,17.163,2.742,34.147,5.154,51.117c1.316,9.263,2.6,18.53,3.94,27.789c1.018,7.037-0.154,13.869-1.903,20.634
		c-7.279,28.143-14.594,56.276-21.905,84.411c-0.709,2.73-2.648,4.072-4.91,3.472c-2.366-0.628-3.381-2.613-2.665-5.379
		c6.032-23.31,12.079-46.616,18.119-69.923c1.411-5.445,2.718-10.919,4.249-16.331c2.178-7.701,1.475-15.384,0.32-23.125
		c-3.042-20.383-6.365-40.743-7.665-61.331c-0.593-9.388-0.66-18.837-0.407-28.244c0.33-12.27,5.812-22.449,14.007-31.323
		c7.199-7.795,15.536-14.283,23.829-20.821c4.469-3.523,8.948-7.034,13.461-10.501c0.99-0.76,1.405-1.571,1.398-2.855
		c-0.106-19.861-0.149-39.723-0.228-59.584c-0.02-5.185-0.145-10.371-0.158-15.556c-0.017-6.958,4.329-11.356,11.347-11.43
		c7.906-0.084,15.814-0.071,23.721-0.105c36.18-0.154,72.361-0.362,108.541-0.454c71.601-0.183,143.203-0.285,214.804-0.478
		c5.945-0.016,10.978,1.661,13.939,7.02c1.228,2.222,1.989,5.017,1.995,7.553c0.109,51.049,0.073,102.098,0.073,153.147
		c0.001,63.131,0.009,126.262,0.012,189.394c0.002,30.617,0.006,61.233-0.005,91.85c-0.003,8.162-6.073,14.309-14.256,14.312
		c-54.655,0.024-109.309,0.014-163.964,0.015c-6.756,0-13.511,0.002-20.267,0.002c-5.745,0-11.49,0.021-17.235-0.005
		c-8.043-0.036-14.153-6.165-14.153-14.217c-0.003-94.759,0.002-189.519,0.005-284.278c0-6.827,0-13.654,0-20.659
		c-0.65-0.053-1.191-0.136-1.732-0.135c-7.97,0.022-15.94,0.079-23.91,0.061c-1.217-0.003-1.663,0.451-1.839,1.591
		c-1.471,9.49-3.183,18.947-4.437,28.464c-2.499,18.955-5.54,37.773-11.863,55.91c-6.514,18.685-16.689,35.097-30.49,49.265
		c-0.835,0.857-1.718,1.729-2.733,2.336c-2.963,1.775-4.387,4.339-5.06,7.717c-1.045,5.249-2.489,10.422-3.883,15.596
		c-0.186,0.689-1.066,1.191-1.618,1.771c-0.113-0.523-0.233-1.038-0.384-1.689c0.36-0.38,0.883-0.933,1.453-1.534
		c-0.957,0.094-1.705,0.167-2.353,0.231C-793.772,36.663-792.633,37.311-791.72,38.066z M-482.149,114.09c0-1.053,0-1.868,0-2.684
		c0-24.038-0.007-48.076,0.016-72.114c0.001-1.365,0.268-2.728,0.368-4.095c0.176-2.399-0.852-4.843,0.275-7.214
		c0.091-0.191,0.002-0.481-0.037-0.719c-0.201-1.218-0.595-2.435-0.596-3.652c-0.029-63.257-0.025-126.515-0.025-189.772
		c0-16.7-0.021-33.4,0.027-50.1c0.005-1.721,0.631-3.445,0.597-5.16c-0.061-3.116-0.556-6.224-0.595-9.339
		c-0.095-7.463-0.03-14.929-0.03-22.393c0-5.205-2.423-7.646-7.67-7.647c-41.874-0.007-83.747-0.004-125.621-0.004
		c-0.728,0-1.456,0-2.036,0c0,7.248,0,14.173,0,21.357c0.73-0.332,1.174-0.535,1.617-0.736c10.348-4.711,21.19-6.799,32.504-5.514
		c24,2.726,41.239,15.169,51.61,36.913c3.069,6.435,5.126,13.272,4.995,20.594c-0.061,3.376,0.549,6.777,0.333,10.133
		c-0.541,8.422-2.693,16.493-6.74,23.914c-11.313,20.743-28.769,32.269-52.381,34.064c-11.744,0.893-22.865-1.67-33.312-7.146
		c-0.554-0.29-1.565-0.451-1.978-0.148c-2.531,1.859-5.354,2.384-8.41,2.394c-19.734,0.063-39.468,0.174-59.201,0.266
		c-2.571,0.012-5.143,0.002-7.93,0.002c0,26.002,0,51.7,0,77.76c-0.799-0.667-1.29-1.077-2.198-1.835
		c0.131,0.99,0.009,1.688,0.294,1.965c2.762,2.683,1.685,6.038,1.951,9.62c-0.932-0.425-1.511-0.69-2.091-0.951
		c-0.402-0.181-0.807-0.356-1.211-0.534c-0.172,0.221-0.344,0.441-0.515,0.662c3.732,0.94,3.861,3.53,3.856,6.591
		c-0.08,47.823-0.059,95.646-0.056,143.469c0,0.668,0.068,1.335,0.108,2.054C-624.821,114.09-553.619,114.09-482.149,114.09z
		 M-729.518-132.431c0.83,0.059,1.203,0.111,1.575,0.109c20.368-0.09,40.737-0.177,61.105-0.281
		c12.65-0.065,25.299-0.146,37.949-0.243c3.296-0.025,4.084-0.807,4.066-3.796c-0.105-17.711-0.223-35.421-0.306-53.132
		c-0.105-22.392-0.181-44.785-0.27-67.178c-0.012-2.919-0.887-3.787-3.897-3.779c-4.301,0.012-8.602,0.064-12.903,0.084
		c-30.742,0.14-61.484,0.272-92.225,0.414c-34.093,0.157-68.185,0.32-102.278,0.481c-3.402,0.016-4.223,0.866-4.199,4.288
		c0.078,10.816,0.168,21.632,0.217,32.449c0.082,18.261,0.126,36.523,0.207,54.784c0.048,10.816,0.139,21.632,0.205,32.449
		c0.019,3.116,0.823,3.959,3.903,3.956c6.642-0.006,13.284-0.02,19.927-0.054c8.729-0.045,17.458-0.14,26.187-0.141
		c1.387,0,2.146-0.4,2.683-1.733c1.108-2.753,2.482-5.399,3.619-8.141c5.226-12.609,10.396-25.242,15.615-37.853
		c1.104-2.668,2.333-5.284,3.568-8.065c-0.496-0.072-0.788-0.121-1.081-0.155c-2.506-0.288-3.987-1.78-3.955-3.988
		c0.032-2.187,1.664-4.056,4.087-3.78c4.115,0.469,6.317-1.356,8.617-4.61c6.415-9.078,14.852-12.175,24.539-9.589
		c7.072,1.888,13.203,5.209,16.588,12.126c0.619,1.266,1.327,1.563,2.594,1.548c6.388-0.077,12.778-0.094,19.167-0.09
		c0.864,0.001,1.798,0.078,2.578,0.408c1.645,0.697,2.459,2.508,2.107,4.244c-0.404,1.992-1.942,3.146-4.35,3.163
		c-5.44,0.038-10.88,0.032-16.319,0.063c-1.168,0.007-2.336,0.097-3.088,0.131c-0.775,4.487-1.08,8.773-2.296,12.781
		c-2.714,8.942-5.934,17.728-8.847,26.611C-726.196-143.564-727.774-138.115-729.518-132.431z M-482.149,122.147
		c-71.532,0-142.777,0-214.102,0c-0.036,0.509-0.084,0.877-0.084,1.245c-0.001,19.038-0.009,38.075,0.016,57.113
		c0.005,3.536,2.488,6.097,5.99,6.337c0.567,0.039,1.138,0.046,1.707,0.047c10.773,0.004,21.545,0.007,32.318,0.006
		c55.593,0,111.186-0.004,166.779,0.001c4.858,0,7.375-2.465,7.376-7.31c0.002-18.405,0.002-36.81,0.002-55.215
		C-482.149,123.685-482.149,123.001-482.149,122.147z M-616.975-151.017c0,4.564,0.059,9.297-0.035,14.027
		c-0.029,1.433,0.532,2.135,1.733,2.76c10.584,5.508,21.76,7.504,33.603,5.957c27.369-3.577,49.066-28.37,47.544-56.707
		c-1.167-21.722-11.593-37.848-31.01-47.526c-16.932-8.439-34.062-7.564-50.816,1.169c-1.085,0.565-1.537,1.243-1.509,2.508
		c0.098,4.425,0.066,8.852,0.098,13.278c0.003,0.392,0.11,0.783,0.184,1.279c18.747-15.968,42.333-11.499,55.013-0.591
		c13.986,12.032,16.521,30.082,13.675,39.443c-0.315-0.483-0.63-0.967-0.946-1.45c-0.197,0.078-0.393,0.156-0.59,0.234
		c0.168,0.512,0.196,1.151,0.527,1.513c1.241,1.354,0.941,2.54-0.034,3.894c-0.525,0.729-0.75,1.692-1.031,2.574
		c-0.437,1.371-0.621,2.852-1.233,4.134c-9.43,19.761-33.575,28.784-53.778,19.959
		C-609.526-146.286-613.121-148.808-616.975-151.017z M-617.336-182.743c0.061,0,0.121,0,0.182,0c0,5.879-0.028,11.757,0.032,17.635
		c0.008,0.819,0.24,1.796,0.724,2.425c6.97,9.063,16.238,13.737,27.643,13.623c13.92-0.14,26.159-8.793,31.124-21.558
		c5.048-12.98,1.786-27.355-8.414-37.079c-14.311-13.643-37.781-11.89-49.855,3.775c-0.719,0.933-1.347,2.218-1.373,3.354
		C-617.409-194.628-617.336-188.684-617.336-182.743z M-812.39-124.108c0.243,0.766,0.378,1.239,0.543,1.701
		c1.697,4.752,3.453,9.485,5.072,14.263c0.617,1.82,1.653,2.982,3.576,3.119c2.037,0.145,3.231-0.973,4.019-2.793
		c2.106-4.866,4.301-9.694,6.447-14.543c0.235-0.531,0.381-1.1,0.601-1.748C-798.984-124.108-805.542-124.108-812.39-124.108z
		 M-671.689,189.789c-1.732,0.055-1.732,0.055-2.407,2.599c1.294,0.822,2.402,2.835,4.041,0.362
		c0.497,0.557,0.893,1.001,1.289,1.444c0.156-0.185,0.313-0.369,0.469-0.554c-0.356-1-1.094-1.384-2.391-1.189
		c-0.857,0.129-1.749,0.025-2.625,0.025c-0.051-0.2-0.102-0.399-0.152-0.599C-672.884,191.193-672.301,190.508-671.689,189.789z
		 M-666.682,192.793c0.114-0.132,0.229-0.264,0.343-0.396c-0.497-0.921-0.961-1.862-1.503-2.755
		c-0.383-0.631-0.826-1.242-1.339-1.767c-0.153-0.156-0.687-0.082-0.946,0.064c-0.153,0.086-0.253,0.64-0.135,0.78
		C-669.098,190.101-667.883,191.441-666.682,192.793z M-477.146,28.614c-1.608-0.558-2.872-0.204-3.759,1.324
		c1.917-0.469,3.777-0.946,4.363,1.816c1.376-2.418-0.564-2.331-1.694-2.835C-477.776,28.79-477.489,28.71-477.146,28.614z
		 M-843.876-171.129c0.058-0.254,0.116-0.507,0.174-0.761c-0.985-0.214-1.97-0.427-2.954-0.641
		c-0.074,0.219-0.148,0.438-0.223,0.656C-846.021-171.23-845.234-170.391-843.876-171.129z"/>
	<path fill="#5F7194" stroke="#5F7194" stroke-width="3" stroke-miterlimit="10" d="M-737.012-172.371
		c-3.9-0.151-8.224-1.823-11.801-5.245c-2.836-2.713-3.289-5.393-1.577-8.885c1.416-2.889,2.901-5.744,4.31-8.637
		c1.006-2.067,2.662-3.275,4.893-3.365c5.749-0.232,10.63,1.848,14.53,6.058c1.404,1.515,1.805,3.395,1.201,5.472
		c-0.811,2.786-1.516,5.603-2.27,8.406C-729.003-173.825-730.997-172.329-737.012-172.371z M-735.977-177.485
		c1.846,0.151,2.956-0.466,3.341-2.46c0.488-2.532,1.368-4.987,1.871-7.517c0.149-0.751-0.141-1.918-0.675-2.42
		c-2.221-2.085-4.994-3.099-7.995-3.519c-1.242-0.174-1.949,0.318-2.474,1.482c-1.141,2.526-2.321,5.048-3.704,7.445
		c-0.871,1.511-0.386,2.449,0.7,3.415C-742.358-178.786-739.312-177.747-735.977-177.485z"/>
	<path fill="#5F7194" stroke="#5F7194" stroke-width="3" stroke-miterlimit="10" d="M-620.039-56.276
		c-0.003-12.521-0.004-25.042-0.002-37.563c0.001-3.647,1.272-4.947,4.841-4.948c17.264-0.003,34.528-0.004,51.792-0.001
		c3.652,0,4.952,1.248,4.954,4.849c0.011,25.169,0.011,50.337,0.002,75.506c-0.001,3.443-1.369,4.824-4.856,4.828
		c-17.263,0.018-34.526,0.015-51.789-0.004c-3.676-0.004-4.93-1.273-4.934-4.913C-620.045-31.107-620.037-43.691-620.039-56.276z
		 M-566.392-90.787c-15.306,0-30.496,0-45.765,0c-0.034,0.603-0.08,1.038-0.08,1.473c0,22.012,0.018,44.024-0.022,66.036
		c-0.003,1.52,0.476,1.907,1.952,1.902c14.232-0.05,28.464-0.029,42.695-0.032c0.365,0,0.731-0.052,1.22-0.089
		C-566.392-44.639-566.392-67.687-566.392-90.787z"/>
	<path fill="#5F7194" stroke="#5F7194" stroke-width="3" stroke-miterlimit="10" d="M-620.041,43.937
		c-0.002-12.583-0.002-25.167-0.001-37.75c0-3.512,1.288-4.818,4.792-4.819c17.263-0.003,34.526-0.002,51.788,0.004
		c3.749,0.001,5.008,1.244,5.009,4.995c0.007,25.104,0.007,50.208-0.002,75.312c-0.001,3.523-1.301,4.834-4.803,4.836
		c-17.326,0.012-34.652,0.013-51.979,0.002c-3.493-0.002-4.797-1.323-4.799-4.828C-620.046,69.104-620.04,56.521-620.041,43.937z
		 M-566.246,9.323c-15.463,0-30.655,0-45.933,0c-0.032,0.663-0.076,1.16-0.076,1.656c0.006,21.884,0.033,43.769-0.009,65.653
		c-0.003,1.65,0.408,2.143,2.111,2.134c13.851-0.071,27.704-0.084,41.555,0.011c2.005,0.014,2.377-0.622,2.371-2.472
		c-0.056-20.24-0.025-40.479-0.018-60.719C-566.245,13.52-566.246,11.453-566.246,9.323z"/>
	<path fill="#5F7194" stroke="#5F7194" stroke-width="3" stroke-miterlimit="10" d="M-643.616-228.158
		c-0.09,5.515-2.389,11.916-7.117,17.405c-1.719,1.996-4.04,2.286-5.846,0.769c-1.679-1.41-1.772-3.795-0.226-5.758
		c7.765-9.862,7.155-21.026-1.643-30.05c-1.736-1.781-1.876-4.148-0.337-5.741c1.518-1.573,3.745-1.591,5.627-0.046
		C-647.399-246.85-643.609-238.227-643.616-228.158z"/>
	<path fill="#5F7194" stroke="#5F7194" stroke-width="3" stroke-miterlimit="10" d="M-795.908-150.435
		c-3.731,0-7.462,0.007-11.193-0.002c-2.685-0.007-4.394-1.525-4.401-3.881c-0.007-2.256,1.667-3.913,4.21-3.937
		c7.651-0.072,15.303-0.093,22.954-0.084c2.355,0.003,3.989,1.667,4.024,3.902c0.033,2.115-1.537,3.769-3.834,3.884
		c-1.956,0.098-3.919,0.064-5.879,0.074c-1.96,0.01-3.921,0.002-5.881,0.002C-795.908-150.464-795.908-150.449-795.908-150.435z"/>
	<path fill="#5F7194" stroke="#5F7194" stroke-width="3" stroke-miterlimit="10" d="M-703.912-162.241
		c3.663,0,7.326-0.007,10.99,0.002c2.802,0.007,4.606,1.553,4.593,3.91c-0.013,2.325-1.657,3.868-4.416,3.899
		c-7.578,0.086-15.158,0.124-22.737,0.119c-2.368-0.002-3.985-1.685-3.989-3.914c-0.004-2.219,1.594-3.852,4.001-3.89
		c3.852-0.061,7.705-0.016,11.558-0.016C-703.912-162.168-703.912-162.204-703.912-162.241z"/>
	<path fill="#5F7194" stroke="#5F7194" stroke-width="3" stroke-miterlimit="10" d="M-662.85-188.721
		c-3.728,0-7.457,0.015-11.185-0.005c-2.446-0.013-4.072-1.474-4.188-3.701c-0.112-2.155,1.476-4.001,3.86-4.035
		c7.895-0.114,15.791-0.136,23.687-0.096c2.078,0.011,3.625,1.852,3.622,3.898c-0.004,2.135-1.581,3.823-3.854,3.865
		c-3.979,0.075-7.961,0.021-11.942,0.021C-662.85-188.757-662.85-188.739-662.85-188.721z"/>
	<path fill="#5F7194" stroke="#5F7194" stroke-width="3" stroke-miterlimit="10" d="M-660.969-163.407
		c3.727,0,7.455-0.006,11.182,0.002c2.683,0.005,4.37,1.517,4.379,3.902c0.008,2.286-1.612,3.848-4.214,3.879
		c-7.517,0.09-15.034,0.147-22.552,0.166c-2.677,0.007-4.359-1.593-4.351-3.953c0.009-2.383,1.662-3.869,4.373-3.881
		c3.727-0.016,7.455-0.004,11.182-0.004C-660.969-163.333-660.969-163.37-660.969-163.407z"/>
	<path fill="#5F7194" stroke="#5F7194" stroke-width="3" stroke-miterlimit="10" d="M-820.214-193.994
		c0.433,0.365,0.855,0.72,1.576,1.327c0-1.013,0-1.769,0-2.767c0.429-0.101,1.01-0.355,1.593-0.359
		c7.708-0.059,15.416-0.084,23.124-0.116c1.841-0.008,3.207,0.823,3.803,2.546c0.552,1.594,0.342,3.24-1.1,4.279
		c-0.808,0.583-1.949,0.967-2.947,0.982c-7.318,0.106-14.638,0.077-21.957,0.143c-1.02,0.009-1.614-0.207-1.949-1.263
		c-0.165-0.52-0.733-1.066-1.253-1.293C-821.317-191.386-821.468-191.799-820.214-193.994z"/>
	<path fill="#5F7194" stroke="#5F7194" stroke-width="3" stroke-miterlimit="10" d="M-658.363-230.12
		c-0.142,5.093-1.489,8.82-4.253,11.996c-1.579,1.814-3.838,2.087-5.554,0.715c-1.744-1.395-1.984-3.64-0.594-5.572
		c3.634-5.051,3.423-8.891-0.744-13.573c-1.577-1.772-1.576-4.084,0.004-5.597c1.627-1.558,3.828-1.523,5.599,0.088
		C-660.426-238.897-658.295-233.941-658.363-230.12z"/>
	<path fill="#5F7194" stroke="#5F7194" stroke-width="3" stroke-miterlimit="10" d="M-672.364-228.756
		c-0.012,2.865-2.332,5.138-5.221,5.116c-2.865-0.022-5.196-2.353-5.185-5.187c0.011-2.966,2.383-5.271,5.357-5.206
		C-674.503-233.969-672.352-231.72-672.364-228.756z"/>
	<path fill="#5F7194" stroke="#5F7194" stroke-width="3" stroke-miterlimit="10" d="M-589.186-158.641
		c-13.544,0.02-24.359-10.725-24.425-24.267c-0.065-13.462,10.805-24.389,24.29-24.417c13.512-0.029,24.371,10.774,24.412,24.285
		C-564.868-169.532-575.685-158.661-589.186-158.641z M-572.765-182.856c0.087-9.033-7.22-16.506-16.239-16.608
		c-9.208-0.104-16.779,7.322-16.802,16.481c-0.023,9.03,7.455,16.495,16.586,16.555
		C-580.295-166.371-572.852-173.801-572.765-182.856z"/>
	<path fill="#5F7194" stroke="#5F7194" stroke-width="3" stroke-miterlimit="10" d="M-589.247-61.767
		c-3.312,4.891-6.42,9.483-9.529,14.073c-0.425,0.627-0.823,1.277-1.293,1.869c-1.427,1.798-3.638,2.214-5.374,1.045
		c-1.812-1.22-2.312-3.535-1.017-5.513c2.835-4.331,5.752-8.609,8.643-12.903c1.657-2.462,3.295-4.937,5.003-7.364
		c2.072-2.944,5.068-2.958,7.105,0.014c4.534,6.615,9.024,13.259,13.493,19.918c1.486,2.215,1.1,4.554-0.829,5.822
		c-1.947,1.28-4.19,0.747-5.709-1.471C-582.209-51.321-585.614-56.397-589.247-61.767z"/>
	<path fill="#5F7194" stroke="#5F7194" stroke-width="3" stroke-miterlimit="10" d="M-589.264,51.249
		c2.123-3.119,4.072-5.978,6.015-8.841c1.562-2.301,3.074-4.636,4.686-6.9c1.418-1.99,3.861-2.463,5.624-1.201
		c1.793,1.283,2.142,3.708,0.774,5.737c-4.487,6.655-8.978,13.307-13.494,19.942c-2.033,2.987-5.06,3.065-7.1,0.096
		c-4.582-6.666-9.092-13.382-13.597-20.101c-1.379-2.056-0.968-4.438,0.866-5.703c1.818-1.254,4.203-0.775,5.617,1.285
		C-596.369,40.665-592.933,45.814-589.264,51.249z"/>
</g>
</svg>
