<?xml version="1.0" encoding="utf-8"?>
<!-- Generator: Adobe Illustrator 17.0.0, SVG Export Plug-In . SVG Version: 6.00 Build 0)  -->
<!DOCTYPE svg PUBLIC "-//W3C//DTD SVG 1.1//EN" "http://www.w3.org/Graphics/SVG/1.1/DTD/svg11.dtd">
<svg version="1.1" id="Capa_1" xmlns="http://www.w3.org/2000/svg" xmlns:xlink="http://www.w3.org/1999/xlink" x="0px" y="0px"
	 width="368.5px" height="89px" viewBox="0 98.248 368.5 89" enable-background="new 0 98.248 368.5 89" xml:space="preserve">
<g>
	<g>
		<g>
			<path fill="#CCCCCC" d="M58.988,112.092c-14.575,0-26.813,9.625-30.663,22.825c6.875,0.688,10.725,0.55,10.725,0.55
				c14.438,0.688,7.838-8.25,7.838-8.25c9.9,7.7,2.2,10.175-1.787,10.862c-1.1,0.137-3.988,0.137-4.95,0
				c-4.538-0.412-8.663-0.825-12.238-1.512l0,0l0,0l0,0c-6.325-0.963-11.275-2.2-14.712-3.163c-1.65-0.412-3.025-0.825-3.988-1.237
				c2.613,1.1,12.925,5.362,18.288,6.325c-0.275,1.65-0.413,3.3-0.413,5.087c13.063,1.513,20.763,1.375,20.763,1.375
				c19.8,0.825,10.862-11.275,10.862-11.275c13.613,10.587,3.025,13.887-2.338,14.85c-1.512,0.275-5.5,0.138-6.875,0.138
				c-19.25-1.513-33.275-5.225-39.737-7.15c-1.512-0.412-2.75-0.825-3.712-1.237l0,0c0,0,13.887,5.775,21.313,7.425
				c0.275,2.063,0.688,3.988,1.237,5.913c18.837,2.475,29.838,2.2,29.838,2.2c24.75,1.1,13.475-14.025,13.475-14.025
				c16.637,13.2,3.575,17.325-3.163,18.425c-1.925,0.275-6.875,0.275-8.525,0.137c-19.662-1.512-35.063-4.95-44.275-7.425
				c-3.712-0.963-7.288-2.063-10.038-3.163c0,0,13.887,6.462,24.888,9.488c5.362,10.037,15.95,16.912,28.187,16.912
				c17.737,0,32.037-14.3,32.037-32.037S76.588,112.092,58.988,112.092z"/>
		</g>
		<g>
			<g>
				<path fill="#5F7194" d="M101.887,128.317h5.087v32.037h-5.087V128.317z"/>
				<path fill="#5F7194" d="M112.75,128.317h15.538v4.538h-5.225v27.5h-5.087v-27.5h-5.225V128.317z"/>
				<path fill="#5F7194" d="M148.775,148.392v4.262c0,5.088-2.613,8.113-7.563,8.113s-7.563-2.887-7.563-8.112v-16.638
					c0-5.087,2.613-8.112,7.563-8.112s7.563,2.888,7.563,8.112v3.163h-4.813v-3.438c0-2.338-0.962-3.163-2.613-3.163
					c-1.65,0-2.613,0.825-2.613,3.163v17.325c0,2.337,0.962,3.162,2.613,3.162c1.65,0,2.613-0.825,2.613-3.162v-4.538h4.813V148.392
					z"/>
				<path fill="#5F7194" d="M172.975,127.905c4.95,0,7.425,2.888,7.425,8.112v0.963h-4.813v-1.375c0-2.338-0.962-3.163-2.475-3.163
					c-1.65,0-2.475,0.825-2.475,3.163c0,6.6,9.763,7.837,9.763,16.912c0,5.088-2.612,8.113-7.563,8.113
					c-4.95,0-7.563-2.887-7.563-8.112v-1.925h4.813v2.338c0,2.337,0.962,3.162,2.613,3.162c1.65,0,2.613-0.825,2.613-3.162
					c0-6.6-9.762-7.838-9.762-16.913C165.55,130.792,168.025,127.905,172.975,127.905z"/>
				<path fill="#5F7194" d="M186.587,136.017c0-5.087,2.75-8.112,7.7-8.112s7.7,2.888,7.7,8.112v16.637
					c0,5.088-2.75,8.113-7.7,8.113s-7.7-2.887-7.7-8.112V136.017z M191.538,152.93c0,2.337,0.962,3.162,2.612,3.162
					s2.612-0.825,2.612-3.162v-17.325c0-2.338-0.962-3.163-2.612-3.163s-2.612,0.825-2.612,3.163V152.93z"/>
				<path fill="#5F7194" d="M208.725,128.317h5.087v27.5h8.25v4.537h-13.337V128.317z"/>
				<path fill="#5F7194" d="M232.65,128.317v24.75c0,2.337,0.962,3.162,2.612,3.162s2.613-0.825,2.613-3.162v-24.75h4.813v24.337
					c0,5.088-2.613,8.113-7.563,8.113c-4.95,0-7.563-2.887-7.563-8.112v-24.338H232.65z"/>
				<path fill="#5F7194" d="M264.275,148.392v4.262c0,5.088-2.612,8.113-7.563,8.113s-7.563-2.887-7.563-8.112v-16.638
					c0-5.087,2.612-8.112,7.563-8.112s7.563,2.888,7.563,8.112v3.163h-4.813v-3.438c0-2.338-0.962-3.163-2.612-3.163
					s-2.612,0.825-2.612,3.163v17.325c0,2.337,0.962,3.162,2.612,3.162s2.612-0.825,2.612-3.162v-4.538h4.813V148.392z"/>
				<path fill="#5F7194" d="M271.013,128.317h5.087v32.037h-5.087V128.317z"/>
				<path fill="#5F7194" d="M282.975,136.017c0-5.087,2.75-8.112,7.7-8.112s7.7,2.888,7.7,8.112v16.637
					c0,5.088-2.75,8.113-7.7,8.113s-7.7-2.887-7.7-8.112V136.017z M287.925,152.93c0,2.337,0.962,3.162,2.612,3.162
					s2.612-0.825,2.612-3.162v-17.325c0-2.338-0.962-3.163-2.612-3.163s-2.612,0.825-2.612,3.163V152.93z"/>
				<path fill="#5F7194" d="M309.65,137.117v23.237h-4.538v-32.037h6.325l5.225,19.113v-19.113h4.538v32.037h-5.225L309.65,137.117z
					"/>
				<path fill="#5F7194" d="M333.3,141.792h6.875v4.537H333.3v9.35h8.663v4.537h-13.75v-31.9h13.75v4.538H333.3V141.792z"/>
				<path fill="#5F7194" d="M355.575,127.905c4.95,0,7.425,2.888,7.425,8.112v0.963h-4.813v-1.375c0-2.338-0.963-3.163-2.475-3.163
					c-1.65,0-2.475,0.825-2.475,3.163c0,6.6,9.762,7.837,9.762,16.912c0,5.088-2.612,8.113-7.563,8.113
					c-4.95,0-7.563-2.887-7.563-8.112v-1.925h4.813v2.338c0,2.337,0.963,3.162,2.613,3.162s2.612-0.825,2.612-3.162
					c0-6.6-9.763-7.838-9.763-16.913C348.15,130.792,350.625,127.905,355.575,127.905z"/>
			</g>
		</g>
	</g>
</g>
<g>
	<g>
		<path fill="#5F7194" d="M58.988,112.092c-14.575,0-26.813,9.625-30.663,22.825c6.875,0.688,10.725,0.55,10.725,0.55
			c14.438,0.688,7.838-8.25,7.838-8.25c9.9,7.7,2.2,10.175-1.787,10.862c-1.1,0.137-3.988,0.137-4.95,0
			c-4.538-0.412-8.663-0.825-12.238-1.512l0,0l0,0l0,0c-6.325-0.963-11.275-2.2-14.712-3.163c-1.65-0.412-3.025-0.825-3.988-1.237
			c2.613,1.1,12.925,5.362,18.288,6.325c-0.275,1.65-0.413,3.3-0.413,5.087c13.063,1.513,20.763,1.375,20.763,1.375
			c19.8,0.825,10.862-11.275,10.862-11.275c13.613,10.587,3.025,13.887-2.338,14.85c-1.512,0.275-5.5,0.138-6.875,0.138
			c-19.25-1.513-33.275-5.225-39.737-7.15c-1.512-0.412-2.75-0.825-3.712-1.237l0,0c0,0,13.887,5.775,21.313,7.425
			c0.275,2.063,0.688,3.988,1.237,5.913c18.837,2.475,29.838,2.2,29.838,2.2c24.75,1.1,13.475-14.025,13.475-14.025
			c16.637,13.2,3.575,17.325-3.163,18.425c-1.925,0.275-6.875,0.275-8.525,0.137c-19.662-1.512-35.063-4.95-44.275-7.425
			c-3.712-0.963-7.288-2.063-10.038-3.163c0,0,13.887,6.462,24.888,9.488c5.362,10.037,15.95,16.912,28.187,16.912
			c17.737,0,32.037-14.3,32.037-32.037S76.588,112.092,58.988,112.092z"/>
	</g>
	<g>
		<g>
			<path fill="#5F7194" d="M101.887,128.317h5.087v32.037h-5.087V128.317z"/>
			<path fill="#5F7194" d="M112.75,128.317h15.538v4.538h-5.225v27.5h-5.087v-27.5h-5.225V128.317z"/>
			<path fill="#5F7194" d="M148.775,148.392v4.262c0,5.088-2.613,8.113-7.563,8.113s-7.563-2.887-7.563-8.112v-16.638
				c0-5.087,2.613-8.112,7.563-8.112s7.563,2.888,7.563,8.112v3.163h-4.813v-3.438c0-2.338-0.962-3.163-2.613-3.163
				c-1.65,0-2.613,0.825-2.613,3.163v17.325c0,2.337,0.962,3.162,2.613,3.162c1.65,0,2.613-0.825,2.613-3.162v-4.538h4.813V148.392z
				"/>
			<path fill="#5F7194" d="M172.975,127.905c4.95,0,7.425,2.888,7.425,8.112v0.963h-4.813v-1.375c0-2.338-0.962-3.163-2.475-3.163
				c-1.65,0-2.475,0.825-2.475,3.163c0,6.6,9.763,7.837,9.763,16.912c0,5.088-2.612,8.113-7.563,8.113
				c-4.95,0-7.563-2.887-7.563-8.113v-1.925h4.813v2.338c0,2.337,0.962,3.162,2.613,3.162c1.65,0,2.613-0.825,2.613-3.162
				c0-6.6-9.762-7.838-9.762-16.913C165.55,130.792,168.025,127.905,172.975,127.905z"/>
			<path fill="#5F7194" d="M186.587,136.017c0-5.087,2.75-8.112,7.7-8.112s7.7,2.888,7.7,8.112v16.637c0,5.088-2.75,8.113-7.7,8.113
				s-7.7-2.887-7.7-8.112V136.017z M191.538,152.93c0,2.337,0.962,3.162,2.612,3.162s2.612-0.825,2.612-3.162v-17.325
				c0-2.338-0.962-3.163-2.612-3.163s-2.612,0.825-2.612,3.163V152.93z"/>
			<path fill="#5F7194" d="M208.725,128.317h5.087v27.5h8.25v4.537h-13.337V128.317z"/>
			<path fill="#5F7194" d="M232.65,128.317v24.75c0,2.337,0.962,3.162,2.612,3.162s2.613-0.825,2.613-3.162v-24.75h4.813v24.337
				c0,5.088-2.613,8.113-7.563,8.113c-4.95,0-7.563-2.887-7.563-8.112v-24.338H232.65z"/>
			<path fill="#5F7194" d="M264.275,148.392v4.262c0,5.088-2.612,8.113-7.563,8.113s-7.563-2.887-7.563-8.112v-16.638
				c0-5.087,2.612-8.112,7.563-8.112s7.563,2.888,7.563,8.112v3.163h-4.813v-3.438c0-2.338-0.962-3.163-2.612-3.163
				s-2.612,0.825-2.612,3.163v17.325c0,2.337,0.962,3.162,2.612,3.162s2.612-0.825,2.612-3.162v-4.538h4.813V148.392z"/>
			<path fill="#5F7194" d="M271.013,128.317h5.087v32.037h-5.087V128.317z"/>
			<path fill="#5F7194" d="M282.975,136.017c0-5.087,2.75-8.112,7.7-8.112s7.7,2.888,7.7,8.112v16.637c0,5.088-2.75,8.113-7.7,8.113
				s-7.7-2.887-7.7-8.112V136.017z M287.925,152.93c0,2.337,0.962,3.162,2.612,3.162s2.612-0.825,2.612-3.162v-17.325
				c0-2.338-0.962-3.163-2.612-3.163s-2.612,0.825-2.612,3.163V152.93z"/>
			<path fill="#5F7194" d="M309.65,137.117v23.237h-4.538v-32.037h6.325l5.225,19.113v-19.113h4.538v32.037h-5.225L309.65,137.117z"
				/>
			<path fill="#5F7194" d="M333.3,141.792h6.875v4.537H333.3v9.35h8.663v4.537h-13.75v-31.9h13.75v4.538H333.3V141.792z"/>
			<path fill="#5F7194" d="M355.575,127.905c4.95,0,7.425,2.888,7.425,8.112v0.963h-4.813v-1.375c0-2.338-0.963-3.163-2.475-3.163
				c-1.65,0-2.475,0.825-2.475,3.163c0,6.6,9.762,7.837,9.762,16.912c0,5.088-2.612,8.113-7.563,8.113
				c-4.95,0-7.563-2.887-7.563-8.113v-1.925h4.813v2.338c0,2.337,0.963,3.162,2.613,3.162s2.612-0.825,2.612-3.162
				c0-6.6-9.763-7.838-9.763-16.913C348.15,130.792,350.625,127.905,355.575,127.905z"/>
		</g>
	</g>
</g>
<g>
	<defs>
		<rect id="SVGID_45_" x="-146.513" y="3.078" width="61.678" height="57.621"/>
	</defs>
	<clipPath id="SVGID_1_">
		<use xlink:href="#SVGID_45_"  overflow="visible"/>
	</clipPath>
	<g clip-path="url(#SVGID_1_)">
		
			<image overflow="visible" width="1366" height="768" xlink:href="46B3EF4C.jpg"  transform="matrix(1 0 0 1 -661.6455 -494.0714)">
		</image>
	</g>
</g>
</svg>
