<?xml version="1.0" encoding="utf-8"?>
<!-- Generator: Adobe Illustrator 17.0.0, SVG Export Plug-In . SVG Version: 6.00 Build 0)  -->
<!DOCTYPE svg PUBLIC "-//W3C//DTD SVG 1.1//EN" "http://www.w3.org/Graphics/SVG/1.1/DTD/svg11.dtd">
<svg version="1.1" id="Capa_1" xmlns="http://www.w3.org/2000/svg" xmlns:xlink="http://www.w3.org/1999/xlink" x="0px" y="0px"
	 width="660.066px" height="660.066px" viewBox="-2429.692 -369.623 660.066 660.066"
	 enable-background="new -2429.692 -369.623 660.066 660.066" xml:space="preserve">
<g>
	<path fill="#5F7194" d="M-1900.102,184.844c-23.467,0-46.59,0.004-69.714-0.002c-10.64-0.002-12.994-2.368-12.998-13.095
		c-0.009-22.775-0.003-45.55-0.003-68.325c0-2.013,0-4.027,0-7.14c-7.355,3.478-13.965,6.597-20.569,9.729
		c-7.874,3.734-12.506,3.199-15.026-1.754c-2.627-5.162-0.067-9.515,7.851-13.29c21.194-10.103,42.381-20.222,63.607-30.257
		c2.497-1.181,4.05-2.276,4.043-5.583c-0.126-60.734-0.094-121.468-0.106-182.201c0-0.695-0.148-1.39-0.311-2.818
		c-16.138,7.686-31.897,15.191-47.942,22.832c21.127,40.551,23.047,81.414,1.922,121.673
		c-21.149,40.306-55.658,62.146-101.406,67.329c0,15.375,0,30.906,0,47.203c10.103-4.833,19.734-9.447,29.371-14.048
		c5.506-2.629,10.961-5.374,16.55-7.812c5.132-2.239,9.751-0.647,11.787,3.696c2.057,4.389,0.393,8.877-4.794,11.401
		c-16.125,7.847-32.298,15.601-48.561,23.157c-3.43,1.594-5.054,3.324-4.969,7.378c0.267,12.77,0.148,25.551-0.006,38.326
		c-0.039,3.253,0.684,5.234,3.863,6.993c10.42,5.766,14.967,17.304,11.801,28.45c-3.023,10.642-12.88,18.103-23.929,18.113
		c-11.194,0.01-21.277-7.776-24.122-18.625c-2.881-10.988,1.72-22.218,11.926-27.95c2.824-1.586,3.936-3.211,3.899-6.407
		c-0.153-13.145,0.08-26.296-0.213-39.436c-0.046-2.061-1.563-5.138-3.263-5.959c-33.958-16.411-68.042-32.56-102.106-48.75
		c-0.634-0.301-1.339-0.451-2.674-0.89c-0.116,2.285-0.297,4.208-0.298,6.131c-0.007,23.146,0.024,46.291,0.019,69.437
		c-0.002,9.935-2.583,12.516-12.465,12.52c-23.31,0.01-46.619,0.003-69.864,0.003c-2.016,8.552-1.528,9.9,5.09,14.522
		c8.96,6.258,12.767,17.511,9.464,27.978c-3.25,10.301-13.143,17.514-23.911,17.434c-11.046-0.082-20.75-7.556-23.774-18.31
		c-2.988-10.624,0.962-21.891,10.531-27.416c4.178-2.412,5.655-5.008,5.147-9.569c-0.387-3.476-0.126-7.028-0.085-10.546
		c0.092-7.831,2.951-10.786,10.734-10.801c22.035-0.041,44.069,0.002,66.104,0.011c1.836,0.001,3.672,0,5.916,0
		c0-13.901,0-27.476,0-41.534c-1.897-0.105-3.694-0.29-5.491-0.291c-30.367-0.018-60.734,0.036-91.1-0.08
		c-3.482-0.013-5.554,0.772-7.403,4.098c-5.654,10.172-17.141,14.731-28.001,11.728c-10.969-3.034-18.562-12.988-18.47-24.213
		c0.09-10.983,7.739-20.965,18.274-23.848c11.19-3.062,22.375,1.723,28.606,11.861c1.032,1.679,3.402,3.596,5.165,3.607
		c32.032,0.201,64.065,0.13,96.099,0.093c0.7-0.001,1.4-0.277,2.667-0.545c0-6.278,0.195-12.534-0.16-18.759
		c-0.073-1.291-1.969-2.907-3.4-3.62c-8.768-4.371-17.457-8.995-26.541-12.609c-7.598-3.023-9.926-7.806-9.806-15.761
		c0.416-27.583,0.16-55.177,0.16-82.766c0-2.008,0-4.015,0-6.789c-3.322,0-6.212,0-9.101,0c-16.109,0-32.219,0.056-48.327-0.046
		c-3.196-0.02-5.259,0.537-7.042,3.782c-5.755,10.476-17.29,15.048-28.402,11.88c-10.683-3.046-18.154-12.851-18.192-23.878
		c-0.039-11.21,7.724-21.335,18.542-24.185c10.984-2.894,22.018,1.842,28.185,11.744c1.072,1.721,3.328,3.818,5.063,3.84
		c19.067,0.25,38.14,0.127,57.211,0.08c0.508-0.001,1.015-0.291,2.043-0.605c0-8.394-0.066-16.87,0.026-25.345
		c0.051-4.747,1.996-8.289,7.097-9.131c5.389-0.889,9.394,2.703,9.532,8.816c0.176,7.773,0.031,15.553,0.031,23.33
		c-0.001,34.996,0.016,69.992-0.031,104.988c-0.004,2.894,0.151,4.968,3.451,6.527c47.141,22.268,94.19,44.73,141.266,67.136
		c0.811,0.386,1.678,0.655,3.122,1.211c0-15.823,0-31.184,0-46.871c-45.245-5.069-80.054-26.74-101.361-67.205
		c-21.206-40.274-19.292-81.104,1.813-121.838c-15.922-7.605-31.659-15.122-48.262-23.052c0,6.295,0.067,11.754-0.018,17.21
		c-0.101,6.467-3.325,10.165-8.562,10.02c-4.993-0.139-8.002-3.727-8.061-9.96c-0.088-9.257,0.151-18.521-0.089-27.773
		c-0.143-5.516,1.972-9.017,7.027-11.304c9.768-4.419,19.351-9.246,29.089-13.735c2.657-1.225,3.998-2.648,3.838-5.803
		c-0.279-5.507-0.078-11.039-0.078-16.968c-2.037-0.175-3.627-0.429-5.218-0.431c-30.552-0.029-61.104,0.022-91.656-0.1
		c-3.681-0.015-5.829,0.851-7.794,4.385c-5.467,9.833-16.841,14.219-27.661,11.431c-10.488-2.703-18.313-12.688-18.545-23.664
		c-0.232-11.011,6.981-20.9,17.673-24.227c10.672-3.321,22.257,0.499,28.009,10.278c2.62,4.454,5.621,5.241,10.181,5.217
		c29.44-0.153,58.882-0.078,88.323-0.077c1.988,0,3.976,0,6.323,0c0-14.095,0-27.517,0-41.788c-1.942,0-3.888,0-5.834,0
		c-21.849,0.001-43.699,0.026-65.548-0.011c-8.581-0.014-11.321-2.786-11.393-11.265c-0.016-1.852-0.171-3.721,0.027-5.552
		c0.728-6.723-0.691-11.386-7.191-15.802c-12.076-8.202-12.642-25.545-2.607-36.155c10.157-10.739,27.207-10.346,36.918,0.851
		c9.528,10.985,7.693,27.687-3.993,36.341c-6.927,5.13-6.927,5.13-6.138,14.926c1.892,0,3.853,0,5.814,0
		c21.849,0,43.699-0.02,65.548,0.011c8.436,0.012,11.392,2.9,11.412,11.322c0.054,23.331,0.02,46.661,0.021,69.992
		c0,2.021,0,4.041,0,6.85c2.042-0.78,3.549-1.238,4.956-1.909c33.048-15.743,66.056-31.572,99.169-47.179
		c3.451-1.626,4.446-3.588,4.397-7.186c-0.173-12.774-0.121-25.553,0.039-38.327c0.041-3.272-0.734-5.225-3.891-6.977
		c-10.402-5.771-14.972-17.381-11.78-28.466c3.066-10.65,12.92-18.088,23.958-18.086c11.194,0.003,21.277,7.803,24.106,18.648
		c2.867,10.991-1.741,22.214-11.955,27.936c-2.842,1.592-3.91,3.244-3.875,6.422c0.148,13.145,0.184,26.294-0.018,39.438
		c-0.054,3.556,1.339,5.206,4.43,6.601c9.266,4.181,18.41,8.637,27.556,13.078c6.014,2.92,8.12,7.202,6.06,11.882
		c-2.115,4.804-7.073,6.021-13.323,3.093c-9.71-4.549-19.308-9.345-29.108-13.689c-2.051-0.909-5.184-1.186-7.121-0.273
		c-46.492,21.911-92.89,44.023-139.3,66.11c-0.66,0.314-1.255,0.764-2.641,1.621c6.249,2.989,12.011,5.748,17.777,8.501
		c8.008,3.824,16.109,7.468,23.985,11.547c3.47,1.797,5.428,1.233,7.883-1.744c16.478-19.987,37.147-33.865,62.225-40.476
		c42.816-11.287,81.294-2.323,115.072,26.237c5.337,4.512,9.706,10.153,14.76,15.026c1.153,1.111,3.728,2.156,4.908,1.616
		c14.423-6.604,28.708-13.51,43.87-20.738c-2.496-1.308-4.156-2.25-5.875-3.069c-23.196-11.06-46.402-22.099-69.598-33.158
		c-1.664-0.794-3.412-1.519-4.876-2.606c-3.514-2.611-4.939-6.106-2.889-10.21c2.094-4.192,5.688-5.894,10.166-4.143
		c4.637,1.813,9.11,4.055,13.62,6.182c9.988,4.71,19.955,9.466,30.693,14.565c0.128-2.714,0.297-4.637,0.297-6.559
		c0.006-23.146-0.027-46.291-0.02-69.437c0.003-9.897,2.599-12.469,12.512-12.473c23.306-0.01,46.611-0.003,69.848-0.003
		c1.94-8.747,1.533-9.856-5.161-14.548c-8.943-6.269-12.732-17.539-9.412-27.996c3.267-10.292,13.177-17.488,23.944-17.388
		c11.053,0.103,20.727,7.583,23.738,18.354c2.967,10.615-1,21.911-10.583,27.388c-4.24,2.423-5.562,5.093-5.107,9.595
		c0.352,3.483,0.129,7.03,0.087,10.547c-0.095,7.804-2.965,10.741-10.779,10.755c-22.034,0.039-44.069-0.002-66.104-0.012
		c-1.83-0.001-3.66,0-5.885,0c0,13.935,0,27.508,0,41.54c1.953,0.105,3.753,0.285,5.552,0.286c30.367,0.017,60.734-0.041,91.1,0.085
		c3.52,0.015,5.538-0.853,7.375-4.146c5.663-10.148,17.182-14.699,28.026-11.669c10.98,3.068,18.541,13.016,18.427,24.244
		c-0.111,10.98-7.789,20.961-18.319,23.816c-11.211,3.039-22.389-1.772-28.581-11.917c-1.021-1.673-3.414-3.556-5.184-3.568
		c-31.847-0.208-63.695-0.146-95.544-0.118c-0.881,0.001-1.763,0.266-3.183,0.494c0,6.38-0.196,12.637,0.161,18.863
		c0.073,1.282,1.992,2.882,3.427,3.593c9.11,4.515,18.213,9.077,27.541,13.107c6.256,2.703,8.828,6.655,8.749,13.639
		c-0.319,28.141-0.132,56.288-0.132,84.433c0,2.001,0,4.001,0,6.337c2.055,0.159,3.655,0.389,5.255,0.392
		c17.405,0.026,34.811-0.041,52.216,0.068c3.225,0.02,5.246-0.616,7.015-3.826c5.76-10.448,17.327-15.014,28.425-11.826
		c10.688,3.07,18.135,12.878,18.152,23.906c0.017,11.051-7.414,20.911-18.061,23.965c-11.142,3.196-22.431-1.485-28.671-11.618
		c-1.005-1.632-2.991-3.763-4.548-3.783c-19.613-0.257-39.231-0.169-59.78-0.169c0,2.228,0,4.154,0,6.08
		c-0.001,28.515-0.142,57.032,0.103,85.545c0.055,6.456-2.21,10.287-8.143,12.854c-9.495,4.109-18.688,8.911-28.099,13.225
		c-2.714,1.244-3.91,2.741-3.754,5.856c0.276,5.502,0.077,11.027,0.077,16.911c2.11,0.168,3.71,0.404,5.311,0.406
		c30.552,0.024,61.104-0.037,91.656,0.095c3.743,0.016,5.793-1.015,7.741-4.476c5.613-9.976,17.383-14.332,28.242-11.155
		c10.308,3.016,17.744,12.789,17.928,23.564c0.191,11.192-7.34,21.223-18.286,24.355c-10.617,3.038-22.194-1.199-27.798-11.011
		c-2.224-3.893-4.724-4.72-8.763-4.702c-29.811,0.138-59.622,0.075-89.434,0.075c-1.981,0-3.963,0-6.267,0
		c0,14.155,0,27.582,0,41.787c2.049,0,4.005,0,5.961,0c21.664-0.003,43.328-0.033,64.993,0.003
		c9.27,0.015,11.822,2.644,11.859,11.919c0.006,1.481,0.111,2.972-0.018,4.442c-0.596,6.791,0.382,11.759,7.234,16.35
		c12.106,8.112,12.557,25.582,2.491,36.141c-10.196,10.695-27.247,10.236-36.92-0.994c-9.485-11.011-7.583-27.714,4.137-36.325
		C-1899.132,194.61-1899.132,194.61-1900.102,184.844z M-2100.017-153.377c-60.352,0.968-109.155,50.585-107.893,109.693
		c1.312,61.431,49.214,109.483,108.607,108.946c60.314-0.545,109.116-50.43,107.81-110.203
		C-1992.824-105.857-2041.324-154.318-2100.017-153.377z M-2308.18-290.775c4.3,0.115,8.237-3.58,8.433-7.915
		c0.194-4.292-3.423-8.28-7.766-8.56c-4.48-0.289-8.698,3.657-8.732,8.169C-2316.278-294.794-2312.487-290.89-2308.18-290.775z
		 M-1891.293-290.764c4.276-0.024,8.16-3.885,8.214-8.165c0.055-4.291-3.71-8.203-8.025-8.341c-4.513-0.144-8.595,3.912-8.483,8.428
		C-1899.48-294.539-1895.579-290.74-1891.293-290.764z M-2307.735,211.597c-4.297-0.146-8.253,3.519-8.482,7.858
		c-0.226,4.289,3.362,8.297,7.708,8.609c4.485,0.322,8.713-3.583,8.781-8.111C-2299.664,215.66-2303.416,211.745-2307.735,211.597z
		 M-1883.072,219.865c0.013-4.281-3.807-8.181-8.103-8.275c-4.299-0.094-8.225,3.624-8.401,7.954
		c-0.182,4.507,3.84,8.625,8.356,8.554C-1886.936,228.031-1883.085,224.14-1883.072,219.865z M-2099.476-290.785
		c4.349-0.108,7.965-3.881,7.941-8.286c-0.023-4.403-3.686-8.138-8.034-8.193c-4.572-0.058-8.351,3.894-8.186,8.56
		C-2107.597-294.275-2103.834-290.676-2099.476-290.785z M-2350.873-197.359c-0.026-4.32-3.775-7.993-8.179-8.014
		c-4.4-0.021-8.162,3.581-8.28,7.927c-0.124,4.554,3.841,8.459,8.441,8.315C-2354.498-189.269-2350.847-193.016-2350.873-197.359z
		 M-1832.012-197.211c0.004-4.341-3.656-8.029-8.047-8.11c-4.625-0.085-8.535,3.797-8.38,8.32c0.148,4.328,3.953,7.921,8.336,7.871
		C-1835.709-189.18-1832.015-192.869-1832.012-197.211z M-2359.02-47.714c-4.408-0.037-8.188,3.56-8.313,7.911
		c-0.125,4.353,3.467,8.131,7.892,8.302c4.669,0.18,8.629-3.58,8.588-8.154C-2350.893-44.006-2354.613-47.677-2359.02-47.714z
		 M-1831.988-39.775c-0.109-4.349-3.881-7.965-8.286-7.941c-4.403,0.024-8.138,3.686-8.193,8.034
		c-0.058,4.572,3.894,8.351,8.561,8.186C-1835.478-31.654-1831.879-35.417-1831.988-39.775z M-2350.898,118.593
		c0.309-4.281-3.146-8.206-7.554-8.582c-4.413-0.376-8.366,2.863-8.825,7.232c-0.473,4.502,3.187,8.678,7.78,8.876
		C-2355.025,126.311-2351.214,122.977-2350.898,118.593z M-1840.082,126.182c4.399-0.069,8.089-3.761,8.097-8.102
		c0.008-4.34-3.698-8.068-8.079-8.127c-4.633-0.063-8.521,3.845-8.365,8.407C-1848.28,122.726-1844.517,126.252-1840.082,126.182z
		 M-2099.751,228.082c4.357,0.055,8.082-3.586,8.195-8.012c0.113-4.435-3.373-8.251-7.737-8.467
		c-4.525-0.225-8.518,3.671-8.493,8.287C-2107.762,224.292-2104.1,228.027-2099.751,228.082z"/>
	<path fill="#5F7194" d="M-2057.619-76.18c2.824,0.454,5.234,0.647,7.539,1.246c8.866,2.306,14.175,9.836,14.272,20.651
		c0.151,16.842,0.105,33.687,0.081,50.53c-0.008,5.363,0.093,10.753-0.39,16.083c-0.866,9.576-7.654,16.609-17.287,17.138
		c-10.888,0.598-21.825,0.351-32.741,0.377c-17.954,0.044-35.908,0.038-53.862,0.003c-16.506-0.032-23.514-7.11-23.539-23.757
		c-0.028-18.324-0.007-36.649-0.006-54.973c0-19.046,3.177-23.099,22.631-27.688c0-5.391-0.359-11.099,0.064-16.748
		c1.596-21.349,19.726-37.88,41.195-37.839c21.539,0.041,39.463,16.467,41.206,37.881
		C-2058.009-87.769-2057.906-82.236-2057.619-76.18z M-2099.527,13.16c0-0.011,0-0.022,0-0.033c13.326,0,26.656-0.178,39.978,0.09
		c5.174,0.104,7.221-1.406,7.153-6.888c-0.246-19.616-0.167-39.239,0.018-58.857c0.044-4.68-1.379-6.606-6.327-6.576
		c-27.207,0.166-54.417,0.179-81.624-0.01c-5.188-0.036-6.674,1.927-6.622,6.854c0.209,19.618,0.257,39.24,0.041,58.857
		c-0.057,5.211,1.955,6.71,6.849,6.635C-2126.552,13.023-2113.038,13.16-2099.527,13.16z M-2075.265-75.954
		c0-6.68,0.667-12.814-0.149-18.745c-1.385-10.071-10.615-18.27-20.728-19.444c-18.233-2.117-33.186,12.195-27.448,38.189
		C-2107.616-75.954-2091.609-75.954-2075.265-75.954z"/>
	<path fill="#5F7194" d="M-2074.786-30.524c-0.316,8.947-4.365,16.331-12.653,20.842c-3.132,1.704-4.18,3.615-3.939,6.932
		c0.158,2.185-0.012,4.456-0.44,6.607c-0.837,4.209-3.804,6.401-7.895,6.369c-4.083-0.031-7.913-2.324-7.65-6.451
		c0.533-8.359-3.57-12.772-9.786-17.627c-8.658-6.763-9.655-20.151-3.995-29.914c5.698-9.828,17.031-14.456,28.092-11.471
		C-2082.138-52.292-2074.763-42.507-2074.786-30.524z M-2091.545-31.359c-0.055-4.369-3.761-8.082-8.084-8.101
		c-4.34-0.019-8.023,3.651-8.092,8.061c-0.072,4.619,3.836,8.546,8.339,8.379C-2095.044-23.179-2091.49-26.961-2091.545-31.359z"/>
</g>
</svg>
