<?xml version="1.0" encoding="utf-8"?>
<!-- Generator: Adobe Illustrator 17.0.0, SVG Export Plug-In . SVG Version: 6.00 Build 0)  -->
<!DOCTYPE svg PUBLIC "-//W3C//DTD SVG 1.1//EN" "http://www.w3.org/Graphics/SVG/1.1/DTD/svg11.dtd">
<svg version="1.1" id="Capa_1" xmlns="http://www.w3.org/2000/svg" xmlns:xlink="http://www.w3.org/1999/xlink" x="0px" y="0px"
	 width="368.5px" height="89px" viewBox="0 208.62 368.5 89" enable-background="new 0 208.62 368.5 89" xml:space="preserve">
<g>
	<g>
		<g>
			<g>
				<path fill="#CCCCCC" d="M58.988,222.464c-14.575,0-26.813,9.625-30.663,22.825c6.875,0.688,10.725,0.55,10.725,0.55
					c14.438,0.688,7.838-8.25,7.838-8.25c9.9,7.7,2.2,10.175-1.787,10.863c-1.1,0.137-3.988,0.137-4.95,0
					c-4.538-0.413-8.663-0.825-12.238-1.512l0,0l0,0l0,0c-6.325-0.963-11.275-2.2-14.712-3.163c-1.65-0.413-3.025-0.825-3.988-1.238
					c2.613,1.1,12.925,5.363,18.288,6.325c-0.275,1.65-0.413,3.3-0.413,5.088c13.063,1.512,20.763,1.375,20.763,1.375
					c19.8,0.825,10.862-11.275,10.862-11.275c13.613,10.588,3.025,13.888-2.338,14.85c-1.512,0.275-5.5,0.138-6.875,0.138
					c-19.25-1.513-33.275-5.225-39.737-7.15c-1.512-0.413-2.75-0.825-3.712-1.238l0,0c0,0,13.887,5.775,21.313,7.425
					c0.275,2.063,0.688,3.988,1.237,5.913c18.837,2.475,29.838,2.2,29.838,2.2c24.75,1.1,13.475-14.025,13.475-14.025
					c16.637,13.2,3.575,17.325-3.163,18.425c-1.925,0.275-6.875,0.275-8.525,0.138c-19.662-1.513-35.063-4.95-44.275-7.425
					c-3.712-0.962-7.288-2.063-10.038-3.163c0,0,13.887,6.463,24.888,9.488c5.362,10.038,15.95,16.913,28.187,16.913
					c17.737,0,32.037-14.3,32.037-32.038S76.588,222.464,58.988,222.464z"/>
			</g>
			<g>
				<g>
					<path fill="#212529" d="M101.887,238.689h5.087v32.038h-5.087V238.689z"/>
					<path fill="#212529" d="M112.75,238.689h15.538v4.537h-5.225v27.5h-5.087v-27.5h-5.225V238.689z"/>
					<path fill="#212529" d="M148.775,258.764v4.263c0,5.087-2.613,8.112-7.563,8.112s-7.563-2.887-7.563-8.112v-16.637
						c0-5.088,2.613-8.113,7.563-8.113s7.563,2.887,7.563,8.113v3.162h-4.813v-3.438c0-2.337-0.962-3.162-2.613-3.162
						c-1.65,0-2.613,0.825-2.613,3.162v17.325c0,2.337,0.962,3.163,2.613,3.163c1.65,0,2.613-0.825,2.613-3.163v-4.538h4.813
						V258.764z"/>
					<path fill="#212529" d="M172.975,238.276c4.95,0,7.425,2.887,7.425,8.113v0.962h-4.813v-1.375c0-2.337-0.962-3.162-2.475-3.162
						c-1.65,0-2.475,0.825-2.475,3.162c0,6.6,9.763,7.838,9.763,16.912c0,5.088-2.612,8.113-7.563,8.113
						c-4.95,0-7.563-2.888-7.563-8.112v-1.925h4.813v2.337c0,2.337,0.962,3.163,2.613,3.163c1.65,0,2.613-0.825,2.613-3.163
						c0-6.6-9.762-7.837-9.762-16.912C165.55,241.164,168.025,238.276,172.975,238.276z"/>
					<path fill="#212529" d="M186.587,246.389c0-5.088,2.75-8.113,7.7-8.113s7.7,2.887,7.7,8.113v16.637
						c0,5.087-2.75,8.112-7.7,8.112s-7.7-2.887-7.7-8.112V246.389z M191.538,263.301c0,2.337,0.962,3.163,2.612,3.163
						s2.612-0.825,2.612-3.163v-17.325c0-2.337-0.962-3.162-2.612-3.162s-2.612,0.825-2.612,3.162V263.301z"/>
					<path fill="#212529" d="M208.725,238.689h5.087v27.5h8.25v4.538h-13.337V238.689z"/>
					<path fill="#212529" d="M232.65,238.689v24.75c0,2.337,0.962,3.163,2.612,3.163s2.613-0.825,2.613-3.163v-24.75h4.813v24.337
						c0,5.087-2.613,8.112-7.563,8.112c-4.95,0-7.563-2.887-7.563-8.112v-24.337H232.65z"/>
					<path fill="#212529" d="M264.275,258.764v4.263c0,5.087-2.612,8.112-7.563,8.112s-7.563-2.887-7.563-8.112v-16.637
						c0-5.088,2.612-8.113,7.563-8.113s7.563,2.887,7.563,8.113v3.162h-4.813v-3.438c0-2.337-0.962-3.162-2.612-3.162
						s-2.612,0.825-2.612,3.162v17.325c0,2.337,0.962,3.163,2.612,3.163s2.612-0.825,2.612-3.163v-4.538h4.813V258.764z"/>
					<path fill="#212529" d="M271.013,238.689h5.087v32.038h-5.087V238.689z"/>
					<path fill="#212529" d="M282.975,246.389c0-5.088,2.75-8.113,7.7-8.113s7.7,2.887,7.7,8.113v16.637
						c0,5.087-2.75,8.112-7.7,8.112s-7.7-2.887-7.7-8.112V246.389z M287.925,263.301c0,2.337,0.962,3.163,2.612,3.163
						s2.612-0.825,2.612-3.163v-17.325c0-2.337-0.962-3.162-2.612-3.162s-2.612,0.825-2.612,3.162V263.301z"/>
					<path fill="#212529" d="M309.65,247.489v23.238h-4.538v-32.038h6.325l5.225,19.112v-19.112h4.538v32.038h-5.225L309.65,247.489
						z"/>
					<path fill="#212529" d="M333.3,252.164h6.875v4.537H333.3v9.35h8.663v4.538h-13.75v-31.9h13.75v4.537H333.3V252.164z"/>
					<path fill="#212529" d="M355.575,238.276c4.95,0,7.425,2.887,7.425,8.113v0.962h-4.813v-1.375c0-2.337-0.963-3.162-2.475-3.162
						c-1.65,0-2.475,0.825-2.475,3.162c0,6.6,9.762,7.838,9.762,16.912c0,5.088-2.612,8.113-7.563,8.113
						c-4.95,0-7.563-2.888-7.563-8.112v-1.925h4.813v2.337c0,2.337,0.963,3.163,2.613,3.163s2.612-0.825,2.612-3.163
						c0-6.6-9.763-7.837-9.763-16.912C348.15,241.164,350.625,238.276,355.575,238.276z"/>
				</g>
			</g>
		</g>
	</g>
	<g>
		<g>
			<g>
				<path fill="#5F7194" d="M58.988,222.464c-14.575,0-26.813,9.625-30.663,22.825c6.875,0.688,10.725,0.55,10.725,0.55
					c14.438,0.688,7.838-8.25,7.838-8.25c9.9,7.7,2.2,10.175-1.787,10.863c-1.1,0.137-3.988,0.137-4.95,0
					c-4.538-0.413-8.663-0.825-12.238-1.512l0,0l0,0l0,0c-6.325-0.963-11.275-2.2-14.712-3.163c-1.65-0.413-3.025-0.825-3.988-1.238
					c2.613,1.1,12.925,5.363,18.288,6.325c-0.275,1.65-0.413,3.3-0.413,5.088c13.063,1.512,20.763,1.375,20.763,1.375
					c19.8,0.825,10.862-11.275,10.862-11.275c13.613,10.588,3.025,13.888-2.338,14.85c-1.512,0.275-5.5,0.138-6.875,0.138
					c-19.25-1.513-33.275-5.225-39.737-7.15c-1.512-0.413-2.75-0.825-3.712-1.238l0,0c0,0,13.887,5.775,21.313,7.425
					c0.275,2.063,0.688,3.988,1.237,5.913c18.837,2.475,29.838,2.2,29.838,2.2c24.75,1.1,13.475-14.025,13.475-14.025
					c16.637,13.2,3.575,17.325-3.163,18.425c-1.925,0.275-6.875,0.275-8.525,0.138c-19.662-1.513-35.063-4.95-44.275-7.425
					c-3.712-0.962-7.288-2.063-10.038-3.163c0,0,13.887,6.463,24.888,9.488c5.362,10.038,15.95,16.913,28.187,16.913
					c17.737,0,32.037-14.3,32.037-32.038S76.588,222.464,58.988,222.464z"/>
			</g>
			<g>
				<g>
					<path fill="#212529" d="M101.887,238.689h5.087v32.038h-5.087V238.689z"/>
					<path fill="#212529" d="M112.75,238.689h15.538v4.537h-5.225v27.5h-5.087v-27.5h-5.225V238.689z"/>
					<path fill="#212529" d="M148.775,258.764v4.263c0,5.087-2.613,8.112-7.563,8.112s-7.563-2.887-7.563-8.112v-16.637
						c0-5.088,2.613-8.113,7.563-8.113s7.563,2.887,7.563,8.113v3.162h-4.813v-3.438c0-2.337-0.962-3.162-2.613-3.162
						c-1.65,0-2.613,0.825-2.613,3.162v17.325c0,2.337,0.962,3.163,2.613,3.163c1.65,0,2.613-0.825,2.613-3.163v-4.538h4.813
						V258.764z"/>
					<path fill="#212529" d="M172.975,238.276c4.95,0,7.425,2.887,7.425,8.113v0.962h-4.813v-1.375c0-2.337-0.962-3.162-2.475-3.162
						c-1.65,0-2.475,0.825-2.475,3.162c0,6.6,9.763,7.838,9.763,16.912c0,5.088-2.612,8.113-7.563,8.113
						c-4.95,0-7.563-2.888-7.563-8.112v-1.925h4.813v2.337c0,2.337,0.962,3.163,2.613,3.163c1.65,0,2.613-0.825,2.613-3.163
						c0-6.6-9.762-7.837-9.762-16.912C165.55,241.164,168.025,238.276,172.975,238.276z"/>
					<path fill="#212529" d="M186.587,246.389c0-5.088,2.75-8.113,7.7-8.113s7.7,2.887,7.7,8.113v16.637
						c0,5.087-2.75,8.112-7.7,8.112s-7.7-2.887-7.7-8.112V246.389z M191.538,263.301c0,2.337,0.962,3.163,2.612,3.163
						s2.612-0.825,2.612-3.163v-17.325c0-2.337-0.962-3.162-2.612-3.162s-2.612,0.825-2.612,3.162V263.301z"/>
					<path fill="#212529" d="M208.725,238.689h5.087v27.5h8.25v4.538h-13.337V238.689z"/>
					<path fill="#212529" d="M232.65,238.689v24.75c0,2.337,0.962,3.163,2.612,3.163s2.613-0.825,2.613-3.163v-24.75h4.813v24.337
						c0,5.087-2.613,8.112-7.563,8.112c-4.95,0-7.563-2.887-7.563-8.112v-24.337H232.65z"/>
					<path fill="#212529" d="M264.275,258.764v4.263c0,5.087-2.612,8.112-7.563,8.112s-7.563-2.887-7.563-8.112v-16.637
						c0-5.088,2.612-8.113,7.563-8.113s7.563,2.887,7.563,8.113v3.162h-4.813v-3.438c0-2.337-0.962-3.162-2.612-3.162
						s-2.612,0.825-2.612,3.162v17.325c0,2.337,0.962,3.163,2.612,3.163s2.612-0.825,2.612-3.163v-4.538h4.813V258.764z"/>
					<path fill="#212529" d="M271.013,238.689h5.087v32.038h-5.087V238.689z"/>
					<path fill="#212529" d="M282.975,246.389c0-5.088,2.75-8.113,7.7-8.113s7.7,2.887,7.7,8.113v16.637
						c0,5.087-2.75,8.112-7.7,8.112s-7.7-2.887-7.7-8.112V246.389z M287.925,263.301c0,2.337,0.962,3.163,2.612,3.163
						s2.612-0.825,2.612-3.163v-17.325c0-2.337-0.962-3.162-2.612-3.162s-2.612,0.825-2.612,3.162V263.301z"/>
					<path fill="#212529" d="M309.65,247.489v23.238h-4.538v-32.038h6.325l5.225,19.112v-19.112h4.538v32.038h-5.225L309.65,247.489
						z"/>
					<path fill="#212529" d="M333.3,252.164h6.875v4.537H333.3v9.35h8.663v4.538h-13.75v-31.9h13.75v4.537H333.3V252.164z"/>
					<path fill="#212529" d="M355.575,238.276c4.95,0,7.425,2.887,7.425,8.113v0.962h-4.813v-1.375c0-2.337-0.963-3.162-2.475-3.162
						c-1.65,0-2.475,0.825-2.475,3.162c0,6.6,9.762,7.838,9.762,16.912c0,5.088-2.612,8.113-7.563,8.113
						c-4.95,0-7.563-2.888-7.563-8.112v-1.925h4.813v2.337c0,2.337,0.963,3.163,2.613,3.163s2.612-0.825,2.612-3.163
						c0-6.6-9.763-7.837-9.763-16.912C348.15,241.164,350.625,238.276,355.575,238.276z"/>
				</g>
			</g>
		</g>
	</g>
</g>
</svg>
