<?xml version="1.0" encoding="utf-8"?>
<!-- Generator: Adobe Illustrator 17.0.0, SVG Export Plug-In . SVG Version: 6.00 Build 0)  -->
<!DOCTYPE svg PUBLIC "-//W3C//DTD SVG 1.1//EN" "http://www.w3.org/Graphics/SVG/1.1/DTD/svg11.dtd">
<svg version="1.1" id="Capa_1" xmlns="http://www.w3.org/2000/svg" xmlns:xlink="http://www.w3.org/1999/xlink" x="0px" y="0px"
	 width="1350px" height="546px" viewBox="-570.656 629.678 1350 546" enable-background="new -570.656 629.678 1350 546"
	 xml:space="preserve">
<g>
	<defs>
		<rect id="SVGID_1_" x="-576.575" y="625.685" width="1361.84" height="553.987"/>
	</defs>
	<clipPath id="SVGID_2_">
		<use xlink:href="#SVGID_1_"  overflow="visible"/>
	</clipPath>
	<g clip-path="url(#SVGID_2_)">
		
			<image overflow="visible" width="1079" height="659" xlink:href="itc_soluciones-header_3.jpg"  transform="matrix(1.2628 0 0 1.2628 -577.842 540.5422)">
		</image>
	</g>
</g>
<defs>
	<filter id="Adobe_OpacityMaskFilter" filterUnits="userSpaceOnUse" x="-206.281" y="624.202" width="993.498" height="556.953">
		
			<feColorMatrix  type="matrix" values="-1 0 0 0 1  0 -1 0 0 1  0 0 -1 0 1  0 0 0 1 0" color-interpolation-filters="sRGB" result="source"/>
	</filter>
</defs>
<mask maskUnits="userSpaceOnUse" x="-206.281" y="624.202" width="993.498" height="556.953" id="SVGID_3_">
	<g filter="url(#Adobe_OpacityMaskFilter)">
		<linearGradient id="SVGID_4_" gradientUnits="userSpaceOnUse" x1="-206.2813" y1="902.678" x2="787.2164" y2="902.678">
			<stop  offset="0" style="stop-color:#FFFFFF"/>
			<stop  offset="0.061" style="stop-color:#DBDBDB"/>
			<stop  offset="0.1591" style="stop-color:#A8A8A8"/>
			<stop  offset="0.2619" style="stop-color:#7B7B7B"/>
			<stop  offset="0.3674" style="stop-color:#555555"/>
			<stop  offset="0.4762" style="stop-color:#363636"/>
			<stop  offset="0.5895" style="stop-color:#1E1E1E"/>
			<stop  offset="0.7091" style="stop-color:#0D0D0D"/>
			<stop  offset="0.8393" style="stop-color:#030303"/>
			<stop  offset="1" style="stop-color:#000000"/>
		</linearGradient>
		<rect x="-206.281" y="624.202" fill="url(#SVGID_4_)" width="993.498" height="556.953"/>
	</g>
</mask>
<rect x="-206.281" y="624.202" opacity="0.7" mask="url(#SVGID_3_)" fill="#5F7194" width="993.498" height="556.953"/>
<g>
	<g>
		<g>
			<g>
				<path fill="#CCCCCC" d="M58.988,222.464c-14.575,0-26.813,9.625-30.663,22.825c6.875,0.688,10.725,0.55,10.725,0.55
					c14.438,0.688,7.838-8.25,7.838-8.25c9.9,7.7,2.2,10.175-1.787,10.863c-1.1,0.137-3.987,0.137-4.95,0
					c-4.537-0.413-8.663-0.825-12.237-1.513l0,0l0,0l0,0c-6.325-0.962-11.275-2.2-14.713-3.162c-1.65-0.413-3.025-0.825-3.988-1.238
					c2.613,1.1,12.925,5.363,18.288,6.325c-0.275,1.65-0.412,3.3-0.412,5.088c13.063,1.512,20.762,1.375,20.762,1.375
					c19.8,0.825,10.863-11.275,10.863-11.275c13.613,10.588,3.025,13.888-2.338,14.85c-1.513,0.275-5.5,0.138-6.875,0.138
					c-19.25-1.513-33.275-5.225-39.738-7.15c-1.512-0.413-2.75-0.825-3.712-1.238l0,0c0,0,13.888,5.775,21.313,7.425
					c0.275,2.063,0.688,3.988,1.237,5.913c18.837,2.475,29.838,2.2,29.838,2.2c24.75,1.1,13.475-14.025,13.475-14.025
					c16.637,13.2,3.575,17.325-3.163,18.425c-1.925,0.275-6.875,0.275-8.525,0.137c-19.662-1.512-35.063-4.95-44.275-7.425
					c-3.712-0.962-7.288-2.063-10.038-3.163c0,0,13.888,6.462,24.887,9.488c5.363,10.037,15.95,16.912,28.188,16.912
					c17.737,0,32.037-14.3,32.037-32.037S76.588,222.464,58.988,222.464z"/>
			</g>
			<g>
				<g>
					<path fill="#212529" d="M101.887,238.689h5.088v32.037h-5.088V238.689z"/>
					<path fill="#212529" d="M112.75,238.689h15.538v4.538h-5.225v27.5h-5.087v-27.5h-5.225V238.689z"/>
					<path fill="#212529" d="M148.775,258.764v4.263c0,5.087-2.613,8.112-7.563,8.112s-7.563-2.887-7.563-8.112v-16.637
						c0-5.088,2.613-8.113,7.563-8.113s7.563,2.887,7.563,8.113v3.162h-4.813v-3.438c0-2.337-0.962-3.162-2.613-3.162
						c-1.65,0-2.613,0.825-2.613,3.162v17.325c0,2.337,0.962,3.162,2.613,3.162c1.65,0,2.613-0.825,2.613-3.162v-4.538h4.813
						V258.764z"/>
					<path fill="#212529" d="M172.975,238.276c4.95,0,7.425,2.887,7.425,8.113v0.962h-4.813v-1.375c0-2.337-0.962-3.162-2.475-3.162
						c-1.65,0-2.475,0.825-2.475,3.162c0,6.6,9.763,7.837,9.763,16.912c0,5.088-2.612,8.113-7.563,8.113
						c-4.95,0-7.563-2.888-7.563-8.113v-1.925h4.813v2.337c0,2.337,0.962,3.163,2.613,3.163c1.65,0,2.613-0.825,2.613-3.163
						c0-6.6-9.762-7.837-9.762-16.912C165.55,241.164,168.025,238.276,172.975,238.276z"/>
					<path fill="#212529" d="M186.587,246.389c0-5.088,2.75-8.113,7.7-8.113s7.7,2.887,7.7,8.113v16.637
						c0,5.087-2.75,8.112-7.7,8.112s-7.7-2.887-7.7-8.112V246.389z M191.538,263.301c0,2.337,0.962,3.163,2.612,3.163
						s2.612-0.825,2.612-3.163v-17.325c0-2.337-0.962-3.162-2.612-3.162s-2.612,0.825-2.612,3.162V263.301z"/>
					<path fill="#212529" d="M208.725,238.689h5.087v27.5h8.25v4.537h-13.337V238.689z"/>
					<path fill="#212529" d="M232.65,238.689v24.75c0,2.337,0.962,3.162,2.612,3.162c1.65,0,2.613-0.825,2.613-3.162v-24.75h4.813
						v24.338c0,5.087-2.613,8.112-7.563,8.112c-4.95,0-7.563-2.887-7.563-8.112v-24.338H232.65z"/>
					<path fill="#212529" d="M264.275,258.764v4.263c0,5.087-2.612,8.112-7.563,8.112s-7.563-2.887-7.563-8.112v-16.637
						c0-5.088,2.612-8.113,7.563-8.113s7.563,2.887,7.563,8.113v3.162h-4.813v-3.438c0-2.337-0.962-3.162-2.612-3.162
						s-2.612,0.825-2.612,3.162v17.325c0,2.337,0.962,3.162,2.612,3.162s2.612-0.825,2.612-3.162v-4.538h4.813V258.764z"/>
					<path fill="#212529" d="M271.013,238.689h5.087v32.037h-5.087V238.689z"/>
					<path fill="#212529" d="M282.975,246.389c0-5.088,2.75-8.113,7.7-8.113s7.7,2.887,7.7,8.113v16.637
						c0,5.087-2.75,8.112-7.7,8.112s-7.7-2.887-7.7-8.112V246.389z M287.925,263.301c0,2.337,0.962,3.163,2.612,3.163
						s2.612-0.825,2.612-3.163v-17.325c0-2.337-0.962-3.162-2.612-3.162s-2.612,0.825-2.612,3.162V263.301z"/>
					<path fill="#212529" d="M309.65,247.489v23.237h-4.538v-32.037h6.325l5.225,19.113v-19.113h4.538v32.037h-5.225L309.65,247.489
						z"/>
					<path fill="#212529" d="M333.3,252.164h6.875v4.537H333.3v9.35h8.663v4.538h-13.75v-31.9h13.75v4.538H333.3V252.164z"/>
					<path fill="#212529" d="M355.575,238.276c4.95,0,7.425,2.887,7.425,8.113v0.962h-4.813v-1.375c0-2.337-0.963-3.162-2.475-3.162
						c-1.65,0-2.475,0.825-2.475,3.162c0,6.6,9.762,7.837,9.762,16.912c0,5.088-2.612,8.113-7.563,8.113
						c-4.95,0-7.563-2.888-7.563-8.113v-1.925h4.813v2.337c0,2.337,0.963,3.163,2.613,3.163s2.612-0.825,2.612-3.163
						c0-6.6-9.763-7.837-9.763-16.912C348.15,241.164,350.625,238.276,355.575,238.276z"/>
				</g>
			</g>
		</g>
	</g>
	<g>
		<g>
			<g>
				<path fill="#5F7194" d="M58.988,222.464c-14.575,0-26.813,9.625-30.663,22.825c6.875,0.688,10.725,0.55,10.725,0.55
					c14.438,0.688,7.838-8.25,7.838-8.25c9.9,7.7,2.2,10.175-1.787,10.863c-1.1,0.137-3.987,0.137-4.95,0
					c-4.537-0.413-8.663-0.825-12.237-1.513l0,0l0,0l0,0c-6.325-0.962-11.275-2.2-14.713-3.162c-1.65-0.413-3.025-0.825-3.988-1.238
					c2.613,1.1,12.925,5.363,18.288,6.325c-0.275,1.65-0.412,3.3-0.412,5.088c13.063,1.512,20.762,1.375,20.762,1.375
					c19.8,0.825,10.863-11.275,10.863-11.275c13.613,10.588,3.025,13.888-2.338,14.85c-1.513,0.275-5.5,0.137-6.875,0.137
					c-19.25-1.512-33.275-5.225-39.738-7.15c-1.512-0.413-2.75-0.825-3.712-1.238l0,0c0,0,13.888,5.775,21.313,7.425
					c0.275,2.063,0.688,3.988,1.237,5.913c18.837,2.475,29.838,2.2,29.838,2.2c24.75,1.1,13.475-14.025,13.475-14.025
					c16.637,13.2,3.575,17.325-3.163,18.425c-1.925,0.275-6.875,0.275-8.525,0.137c-19.662-1.512-35.063-4.95-44.275-7.425
					c-3.712-0.962-7.288-2.063-10.038-3.163c0,0,13.888,6.462,24.887,9.488c5.363,10.037,15.95,16.912,28.188,16.912
					c17.737,0,32.037-14.3,32.037-32.037S76.588,222.464,58.988,222.464z"/>
			</g>
			<g>
				<g>
					<path fill="#212529" d="M101.887,238.689h5.088v32.037h-5.088V238.689z"/>
					<path fill="#212529" d="M112.75,238.689h15.538v4.538h-5.225v27.5h-5.087v-27.5h-5.225V238.689z"/>
					<path fill="#212529" d="M148.775,258.764v4.263c0,5.087-2.613,8.112-7.563,8.112s-7.563-2.887-7.563-8.112v-16.637
						c0-5.088,2.613-8.113,7.563-8.113s7.563,2.887,7.563,8.113v3.162h-4.813v-3.438c0-2.337-0.962-3.162-2.613-3.162
						c-1.65,0-2.613,0.825-2.613,3.162v17.325c0,2.337,0.962,3.162,2.613,3.162c1.65,0,2.613-0.825,2.613-3.162v-4.538h4.813
						V258.764z"/>
					<path fill="#212529" d="M172.975,238.276c4.95,0,7.425,2.887,7.425,8.113v0.962h-4.813v-1.375c0-2.337-0.962-3.163-2.475-3.163
						c-1.65,0-2.475,0.825-2.475,3.163c0,6.6,9.763,7.837,9.763,16.912c0,5.088-2.612,8.113-7.563,8.113
						c-4.95,0-7.563-2.888-7.563-8.113v-1.925h4.813v2.337c0,2.337,0.962,3.163,2.613,3.163c1.65,0,2.613-0.825,2.613-3.163
						c0-6.6-9.762-7.837-9.762-16.912C165.55,241.164,168.025,238.276,172.975,238.276z"/>
					<path fill="#212529" d="M186.587,246.389c0-5.088,2.75-8.113,7.7-8.113s7.7,2.887,7.7,8.113v16.637
						c0,5.087-2.75,8.112-7.7,8.112s-7.7-2.887-7.7-8.112V246.389z M191.538,263.301c0,2.337,0.962,3.163,2.612,3.163
						s2.612-0.825,2.612-3.163v-17.325c0-2.337-0.962-3.163-2.612-3.163s-2.612,0.825-2.612,3.163V263.301z"/>
					<path fill="#212529" d="M208.725,238.689h5.087v27.5h8.25v4.537h-13.337V238.689z"/>
					<path fill="#212529" d="M232.65,238.689v24.75c0,2.337,0.962,3.162,2.612,3.162c1.65,0,2.613-0.825,2.613-3.162v-24.75h4.813
						v24.338c0,5.087-2.613,8.112-7.563,8.112c-4.95,0-7.563-2.887-7.563-8.112v-24.338H232.65z"/>
					<path fill="#212529" d="M264.275,258.764v4.263c0,5.087-2.612,8.112-7.563,8.112s-7.563-2.887-7.563-8.112v-16.637
						c0-5.088,2.612-8.113,7.563-8.113s7.563,2.887,7.563,8.113v3.162h-4.813v-3.438c0-2.337-0.962-3.162-2.612-3.162
						s-2.612,0.825-2.612,3.162v17.325c0,2.337,0.962,3.162,2.612,3.162s2.612-0.825,2.612-3.162v-4.538h4.813V258.764z"/>
					<path fill="#212529" d="M271.013,238.689h5.087v32.037h-5.087V238.689z"/>
					<path fill="#212529" d="M282.975,246.389c0-5.088,2.75-8.113,7.7-8.113s7.7,2.887,7.7,8.113v16.637
						c0,5.087-2.75,8.112-7.7,8.112s-7.7-2.887-7.7-8.112V246.389z M287.925,263.301c0,2.337,0.962,3.163,2.612,3.163
						s2.612-0.825,2.612-3.163v-17.325c0-2.337-0.962-3.163-2.612-3.163s-2.612,0.825-2.612,3.163V263.301z"/>
					<path fill="#212529" d="M309.65,247.489v23.237h-4.538v-32.037h6.325l5.225,19.113v-19.113h4.538v32.037h-5.225L309.65,247.489
						z"/>
					<path fill="#212529" d="M333.3,252.164h6.875v4.537H333.3v9.35h8.663v4.538h-13.75v-31.9h13.75v4.538H333.3V252.164z"/>
					<path fill="#212529" d="M355.575,238.276c4.95,0,7.425,2.887,7.425,8.113v0.962h-4.813v-1.375c0-2.337-0.963-3.163-2.475-3.163
						c-1.65,0-2.475,0.825-2.475,3.163c0,6.6,9.762,7.837,9.762,16.912c0,5.088-2.612,8.113-7.563,8.113
						c-4.95,0-7.563-2.888-7.563-8.113v-1.925h4.813v2.337c0,2.337,0.963,3.163,2.613,3.163s2.612-0.825,2.612-3.163
						c0-6.6-9.763-7.837-9.763-16.912C348.15,241.164,350.625,238.276,355.575,238.276z"/>
				</g>
			</g>
		</g>
		<g>
			<g>
				<path fill="#466391" d="M58.988,326.708c-14.575,0-26.813,9.625-30.663,22.825c6.875,0.688,10.725,0.55,10.725,0.55
					c14.438,0.688,7.838-8.25,7.838-8.25c9.9,7.7,2.2,10.175-1.787,10.862c-1.1,0.138-3.987,0.138-4.95,0
					c-4.537-0.413-8.663-0.825-12.237-1.512l0,0l0,0l0,0c-6.325-0.963-11.275-2.2-14.713-3.163c-1.65-0.413-3.025-0.825-3.988-1.238
					c2.613,1.1,12.925,5.363,18.288,6.325c-0.275,1.65-0.412,3.3-0.412,5.087c13.063,1.513,20.762,1.375,20.762,1.375
					c19.8,0.825,10.863-11.275,10.863-11.275c13.613,10.587,3.025,13.888-2.338,14.85c-1.513,0.275-5.5,0.137-6.875,0.137
					c-19.25-1.512-33.275-5.225-39.738-7.15c-1.512-0.412-2.75-0.825-3.712-1.237l0,0c0,0,13.888,5.775,21.313,7.425
					c0.275,2.063,0.688,3.988,1.237,5.913c18.837,2.475,29.838,2.2,29.838,2.2c24.75,1.1,13.475-14.025,13.475-14.025
					c16.637,13.2,3.575,17.325-3.163,18.425c-1.925,0.275-6.875,0.275-8.525,0.137c-19.662-1.512-35.063-4.95-44.275-7.425
					c-3.712-0.962-7.288-2.063-10.038-3.163c0,0,13.888,6.462,24.887,9.488c5.363,10.037,15.95,16.912,28.188,16.912
					c17.737,0,32.037-14.3,32.037-32.037C91.025,341.008,76.588,326.708,58.988,326.708z"/>
			</g>
			<g>
				<g>
					<path fill="#212529" d="M101.887,342.933h5.088v32.037h-5.088V342.933z"/>
					<path fill="#212529" d="M112.75,342.933h15.538v4.537h-5.225v27.5h-5.087v-27.5h-5.225V342.933z"/>
					<path fill="#212529" d="M148.775,363.008v4.263c0,5.087-2.613,8.112-7.563,8.112s-7.563-2.887-7.563-8.112v-16.638
						c0-5.087,2.613-8.112,7.563-8.112s7.563,2.887,7.563,8.112v3.163h-4.813v-3.438c0-2.337-0.962-3.163-2.613-3.163
						c-1.65,0-2.613,0.825-2.613,3.163v17.325c0,2.337,0.962,3.162,2.613,3.162c1.65,0,2.613-0.825,2.613-3.162v-4.538h4.813
						V363.008z"/>
					<path fill="#212529" d="M172.975,342.52c4.95,0,7.425,2.887,7.425,8.112v0.962h-4.813v-1.375c0-2.337-0.962-3.162-2.475-3.162
						c-1.65,0-2.475,0.825-2.475,3.162c0,6.6,9.763,7.838,9.763,16.913c0,5.088-2.612,8.113-7.563,8.113
						c-4.95,0-7.563-2.888-7.563-8.113v-1.925h4.813v2.337c0,2.337,0.962,3.163,2.613,3.163c1.65,0,2.613-0.825,2.613-3.163
						c0-6.6-9.762-7.837-9.762-16.913C165.55,345.408,168.025,342.52,172.975,342.52z"/>
					<path fill="#212529" d="M186.587,350.633c0-5.087,2.75-8.112,7.7-8.112s7.7,2.887,7.7,8.112v16.638
						c0,5.087-2.75,8.112-7.7,8.112s-7.7-2.887-7.7-8.112V350.633z M191.538,367.545c0,2.337,0.962,3.163,2.612,3.163
						s2.612-0.825,2.612-3.163V350.22c0-2.337-0.962-3.162-2.612-3.162s-2.612,0.825-2.612,3.162V367.545z"/>
					<path fill="#212529" d="M208.725,342.933h5.087v27.5h8.25v4.537h-13.337V342.933z"/>
					<path fill="#212529" d="M232.65,342.933v24.75c0,2.337,0.962,3.162,2.612,3.162c1.65,0,2.613-0.825,2.613-3.162v-24.75h4.813
						v24.337c0,5.087-2.613,8.112-7.563,8.112c-4.95,0-7.563-2.887-7.563-8.112v-24.337H232.65z"/>
					<path fill="#212529" d="M264.275,363.008v4.263c0,5.087-2.612,8.112-7.563,8.112s-7.563-2.887-7.563-8.112v-16.638
						c0-5.087,2.612-8.112,7.563-8.112s7.563,2.887,7.563,8.112v3.163h-4.813v-3.438c0-2.337-0.962-3.163-2.612-3.163
						s-2.612,0.825-2.612,3.163v17.325c0,2.337,0.962,3.162,2.612,3.162s2.612-0.825,2.612-3.162v-4.538h4.813V363.008z"/>
					<path fill="#212529" d="M271.013,342.933h5.087v32.037h-5.087V342.933z"/>
					<path fill="#212529" d="M282.975,350.633c0-5.087,2.75-8.112,7.7-8.112s7.7,2.887,7.7,8.112v16.638
						c0,5.087-2.75,8.112-7.7,8.112s-7.7-2.887-7.7-8.112V350.633z M287.925,367.545c0,2.337,0.962,3.163,2.612,3.163
						s2.612-0.825,2.612-3.163V350.22c0-2.337-0.962-3.162-2.612-3.162s-2.612,0.825-2.612,3.162V367.545z"/>
					<path fill="#212529" d="M309.65,351.733v23.237h-4.538v-32.037h6.325l5.225,19.112v-19.112h4.538v32.037h-5.225L309.65,351.733
						z"/>
					<path fill="#212529" d="M333.3,356.408h6.875v4.538H333.3v9.35h8.663v4.538h-13.75v-31.9h13.75v4.537H333.3V356.408z"/>
					<path fill="#212529" d="M355.575,342.52c4.95,0,7.425,2.887,7.425,8.112v0.962h-4.813v-1.375c0-2.337-0.963-3.162-2.475-3.162
						c-1.65,0-2.475,0.825-2.475,3.162c0,6.6,9.762,7.838,9.762,16.913c0,5.088-2.612,8.113-7.563,8.113
						c-4.95,0-7.563-2.888-7.563-8.113v-1.925h4.813v2.337c0,2.337,0.963,3.163,2.613,3.163s2.612-0.825,2.612-3.163
						c0-6.6-9.763-7.837-9.763-16.913C348.15,345.408,350.625,342.52,355.575,342.52z"/>
				</g>
			</g>
		</g>
	</g>
</g>
<image overflow="visible" width="1366" height="768" xlink:href="F76F3DF4.jpg"  transform="matrix(1 0 0 1 -1956.4248 456.0871)">
</image>
<image overflow="visible" width="1079" height="659" xlink:href="itc_soluciones-header_1.jpg"  transform="matrix(1.2562 0 0 1.2562 873.8288 629.678)">
</image>
<image overflow="visible" width="1079" height="659" xlink:href="itc_soluciones-header_2.jpg"  transform="matrix(1.2562 0 0 1.2562 873.8288 629.678)">
</image>
<defs>
	<filter id="Adobe_OpacityMaskFilter_1_" filterUnits="userSpaceOnUse" x="-206.281" y="626.322" width="993.498" height="556.953">
		
			<feColorMatrix  type="matrix" values="-1 0 0 0 1  0 -1 0 0 1  0 0 -1 0 1  0 0 0 1 0" color-interpolation-filters="sRGB" result="source"/>
	</filter>
</defs>
<mask maskUnits="userSpaceOnUse" x="-206.281" y="626.322" width="993.498" height="556.953" id="SVGID_5_">
	<g filter="url(#Adobe_OpacityMaskFilter_1_)">
		<linearGradient id="SVGID_6_" gradientUnits="userSpaceOnUse" x1="-206.2813" y1="904.7986" x2="787.2164" y2="904.7986">
			<stop  offset="0" style="stop-color:#FFFFFF"/>
			<stop  offset="0.061" style="stop-color:#DBDBDB"/>
			<stop  offset="0.1591" style="stop-color:#A8A8A8"/>
			<stop  offset="0.2619" style="stop-color:#7B7B7B"/>
			<stop  offset="0.3674" style="stop-color:#555555"/>
			<stop  offset="0.4762" style="stop-color:#363636"/>
			<stop  offset="0.5895" style="stop-color:#1E1E1E"/>
			<stop  offset="0.7091" style="stop-color:#0D0D0D"/>
			<stop  offset="0.8393" style="stop-color:#030303"/>
			<stop  offset="1" style="stop-color:#000000"/>
		</linearGradient>
		<rect x="-206.281" y="626.322" fill="url(#SVGID_6_)" width="993.498" height="556.953"/>
	</g>
</mask>
<rect x="-206.281" y="626.322" mask="url(#SVGID_5_)" fill="#5F7194" width="993.498" height="556.953"/>
<defs>
	<filter id="Adobe_OpacityMaskFilter_2_" filterUnits="userSpaceOnUse" x="-206.281" y="624.202" width="993.498" height="556.953">
		
			<feColorMatrix  type="matrix" values="-1 0 0 0 1  0 -1 0 0 1  0 0 -1 0 1  0 0 0 1 0" color-interpolation-filters="sRGB" result="source"/>
	</filter>
</defs>
<mask maskUnits="userSpaceOnUse" x="-206.281" y="624.202" width="993.498" height="556.953" id="SVGID_7_">
	<g filter="url(#Adobe_OpacityMaskFilter_2_)">
		<linearGradient id="SVGID_8_" gradientUnits="userSpaceOnUse" x1="-206.2813" y1="902.678" x2="787.2164" y2="902.678">
			<stop  offset="0" style="stop-color:#FFFFFF"/>
			<stop  offset="0.061" style="stop-color:#DBDBDB"/>
			<stop  offset="0.1591" style="stop-color:#A8A8A8"/>
			<stop  offset="0.2619" style="stop-color:#7B7B7B"/>
			<stop  offset="0.3674" style="stop-color:#555555"/>
			<stop  offset="0.4762" style="stop-color:#363636"/>
			<stop  offset="0.5895" style="stop-color:#1E1E1E"/>
			<stop  offset="0.7091" style="stop-color:#0D0D0D"/>
			<stop  offset="0.8393" style="stop-color:#030303"/>
			<stop  offset="1" style="stop-color:#000000"/>
		</linearGradient>
		<rect x="-206.281" y="624.202" fill="url(#SVGID_8_)" width="993.498" height="556.953"/>
	</g>
</mask>
<rect x="-206.281" y="624.202" mask="url(#SVGID_7_)" fill="#5F7194" width="993.498" height="556.953"/>
<g>
	<text transform="matrix(1 0 0 1 226.2178 1362.6864)"><tspan x="0" y="0" fill="#DAF9FF" font-family="'MyriadPro-Regular'" font-size="27.9369">Trabajamos bajo un Sistema de</tspan><tspan x="0" y="33.524" fill="#DAF9FF" font-family="'MyriadPro-Regular'" font-size="27.9369">Gestión de la Calidad según </tspan><tspan x="0" y="67.049" fill="#DAF9FF" font-family="'MyriadPro-Regular'" font-size="27.9369">Norma ISO:9001/2015 </tspan></text>
</g>
<g>
	<text transform="matrix(1 0 0 1 226.1894 1293.2323)" fill="#DAF9FF" font-family="'MyriadPro-Bold'" font-size="32.0057">INNOVACIÓN Y SERVICIO</text>
</g>
<rect x="226.189" y="1312.603" fill="#DAF9FF" width="106.145" height="5.587"/>
<g>
	<defs>
		<circle id="SVGID_9_" cx="-463.954" cy="1522.077" r="66.549"/>
	</defs>
	<clipPath id="SVGID_10_">
		<use xlink:href="#SVGID_9_"  overflow="visible"/>
	</clipPath>
	<g clip-path="url(#SVGID_10_)">
		
			<image overflow="visible" width="900" height="600" xlink:href="kisspng-iso-9-1-oktan-ltd-marine-agency-and-survey-se-5b7584e7c3a0c4.8268044015344283918013.jpg"  transform="matrix(0.293 0 0 0.293 -595.2927 1433.5558)">
		</image>
	</g>
</g>
</svg>
