<?xml version="1.0" encoding="utf-8"?>
<!-- Generator: Adobe Illustrator 17.0.0, SVG Export Plug-In . SVG Version: 6.00 Build 0)  -->
<!DOCTYPE svg PUBLIC "-//W3C//DTD SVG 1.1//EN" "http://www.w3.org/Graphics/SVG/1.1/DTD/svg11.dtd">
<svg version="1.1" id="Capa_1" xmlns="http://www.w3.org/2000/svg" xmlns:xlink="http://www.w3.org/1999/xlink" x="0px" y="0px"
	 width="100.845px" height="96.992px" viewBox="0 70.345 100.845 96.992" enable-background="new 0 70.345 100.845 96.992"
	 xml:space="preserve">
<g>
	<g>
		<g>
			<path fill="#265784" d="M61.178,86.082c-14.903,0-27.416,9.842-31.353,23.339c7.03,0.703,10.967,0.562,10.967,0.562
				c14.763,0.703,8.014-8.436,8.014-8.436c10.123,7.873,2.25,10.404-1.828,11.107c-1.125,0.141-4.077,0.141-5.061,0
				c-4.64-0.422-8.858-0.844-12.513-1.547l0,0l0,0l0,0c-6.467-0.984-11.529-2.25-15.044-3.234c-1.687-0.422-3.093-0.844-4.077-1.265
				c2.671,1.125,13.216,5.483,18.699,6.467c-0.281,1.687-0.422,3.374-0.422,5.202c13.357,1.547,21.23,1.406,21.23,1.406
				c20.246,0.844,11.107-11.529,11.107-11.529c13.919,10.826,3.093,14.2-2.39,15.184c-1.547,0.281-5.624,0.141-7.03,0.141
				c-19.684-1.547-34.025-5.343-40.633-7.311c-1.547-0.422-2.812-0.844-3.796-1.265l0,0c0,0,14.2,5.905,21.793,7.592
				c0.281,2.109,0.703,4.077,1.265,6.046c19.262,2.531,30.51,2.25,30.51,2.25c25.307,1.125,13.779-14.341,13.779-14.341
				c17.012,13.497,3.656,17.715-3.234,18.84c-1.968,0.281-7.03,0.281-8.717,0.141c-20.105-1.547-35.852-5.061-45.272-7.592
				c-3.796-0.984-7.452-2.109-10.264-3.234c0,0,14.2,6.608,25.448,9.701C37.839,144.57,48.665,151.6,61.178,151.6
				c18.137,0,32.759-14.622,32.759-32.759S79.174,86.082,61.178,86.082z"/>
		</g>
	</g>
</g>
</svg>
